<mxfile host="Electron" modified="2023-11-22T04:00:27.827Z" agent="Mozilla/5.0 (X11; Linux x86_64) AppleWebKit/537.36 (KHTML, like Gecko) draw.io/22.1.2 Chrome/114.0.5735.289 Electron/25.9.4 Safari/537.36" etag="8YDiiKJBQ5Vd_TsKVjGC" version="22.1.2" type="device" pages="7">
  <diagram id="whgJcLObAnrZEsQRWRJR" name="Modelo 4+1">
    <mxGraphModel dx="1240" dy="766" grid="1" gridSize="10" guides="1" tooltips="1" connect="1" arrows="1" fold="1" page="0" pageScale="1" pageWidth="850" pageHeight="1100" math="0" shadow="0">
      <root>
        <mxCell id="0" />
        <mxCell id="1" parent="0" />
        <mxCell id="GUKkCShZy5PyPHcjqtOP-1" value="" style="group" vertex="1" connectable="0" parent="1">
          <mxGeometry width="800" height="520" as="geometry" />
        </mxCell>
        <mxCell id="GHbuqxX5vG7cR6NfMnXz-1" value="" style="rounded=0;whiteSpace=wrap;html=1;sketch=1;curveFitting=1;jiggle=2;fontFamily=Architects Daughter;fontSource=https%3A%2F%2Ffonts.googleapis.com%2Fcss%3Ffamily%3DArchitects%2BDaughter;" parent="GUKkCShZy5PyPHcjqtOP-1" vertex="1">
          <mxGeometry x="400" width="400" height="520" as="geometry" />
        </mxCell>
        <mxCell id="GHbuqxX5vG7cR6NfMnXz-2" value="" style="rounded=0;whiteSpace=wrap;html=1;sketch=1;curveFitting=1;jiggle=2;fontFamily=Architects Daughter;fontSource=https%3A%2F%2Ffonts.googleapis.com%2Fcss%3Ffamily%3DArchitects%2BDaughter;" parent="GUKkCShZy5PyPHcjqtOP-1" vertex="1">
          <mxGeometry width="400" height="520" as="geometry" />
        </mxCell>
        <mxCell id="GHbuqxX5vG7cR6NfMnXz-3" value="" style="rounded=1;whiteSpace=wrap;html=1;sketch=1;curveFitting=1;jiggle=2;fontFamily=Architects Daughter;fontSource=https%3A%2F%2Ffonts.googleapis.com%2Fcss%3Ffamily%3DArchitects%2BDaughter;" parent="GUKkCShZy5PyPHcjqtOP-1" vertex="1">
          <mxGeometry x="20" y="70" width="330" height="170" as="geometry" />
        </mxCell>
        <mxCell id="GHbuqxX5vG7cR6NfMnXz-4" value="" style="rounded=1;whiteSpace=wrap;html=1;sketch=1;curveFitting=1;jiggle=2;fontFamily=Architects Daughter;fontSource=https%3A%2F%2Ffonts.googleapis.com%2Fcss%3Ffamily%3DArchitects%2BDaughter;" parent="GUKkCShZy5PyPHcjqtOP-1" vertex="1">
          <mxGeometry x="20" y="320" width="330" height="170" as="geometry" />
        </mxCell>
        <mxCell id="GHbuqxX5vG7cR6NfMnXz-5" value="" style="rounded=1;whiteSpace=wrap;html=1;sketch=1;curveFitting=1;jiggle=2;fontFamily=Architects Daughter;fontSource=https%3A%2F%2Ffonts.googleapis.com%2Fcss%3Ffamily%3DArchitects%2BDaughter;" parent="GUKkCShZy5PyPHcjqtOP-1" vertex="1">
          <mxGeometry x="451" y="70" width="330" height="170" as="geometry" />
        </mxCell>
        <mxCell id="GHbuqxX5vG7cR6NfMnXz-6" value="" style="rounded=1;whiteSpace=wrap;html=1;sketch=1;curveFitting=1;jiggle=2;fontFamily=Architects Daughter;fontSource=https%3A%2F%2Ffonts.googleapis.com%2Fcss%3Ffamily%3DArchitects%2BDaughter;" parent="GUKkCShZy5PyPHcjqtOP-1" vertex="1">
          <mxGeometry x="451" y="320" width="330" height="170" as="geometry" />
        </mxCell>
        <mxCell id="GHbuqxX5vG7cR6NfMnXz-7" value="" style="rounded=1;whiteSpace=wrap;html=1;sketch=1;curveFitting=1;jiggle=2;fontFamily=Architects Daughter;fontSource=https%3A%2F%2Ffonts.googleapis.com%2Fcss%3Ffamily%3DArchitects%2BDaughter;" parent="GUKkCShZy5PyPHcjqtOP-1" vertex="1">
          <mxGeometry x="285" y="205" width="240" height="155" as="geometry" />
        </mxCell>
        <mxCell id="GHbuqxX5vG7cR6NfMnXz-8" value="Conceptual" style="text;html=1;strokeColor=none;fillColor=none;align=center;verticalAlign=middle;whiteSpace=wrap;rounded=0;sketch=1;curveFitting=1;jiggle=2;fontFamily=Architects Daughter;fontSource=https%3A%2F%2Ffonts.googleapis.com%2Fcss%3Ffamily%3DArchitects%2BDaughter;" parent="GUKkCShZy5PyPHcjqtOP-1" vertex="1">
          <mxGeometry x="110" y="20" width="150" height="30" as="geometry" />
        </mxCell>
        <mxCell id="GHbuqxX5vG7cR6NfMnXz-9" value="Vista Logica" style="text;html=1;strokeColor=none;fillColor=none;align=center;verticalAlign=middle;whiteSpace=wrap;rounded=0;sketch=1;curveFitting=1;jiggle=2;fontFamily=Architects Daughter;fontSource=https%3A%2F%2Ffonts.googleapis.com%2Fcss%3Ffamily%3DArchitects%2BDaughter;" parent="GUKkCShZy5PyPHcjqtOP-1" vertex="1">
          <mxGeometry x="120" y="147" width="130" height="30" as="geometry" />
        </mxCell>
        <mxCell id="GHbuqxX5vG7cR6NfMnXz-10" value="Usuario final" style="text;html=1;strokeColor=none;fillColor=none;align=left;verticalAlign=middle;whiteSpace=wrap;rounded=0;sketch=1;curveFitting=1;jiggle=2;fontFamily=Architects Daughter;fontSource=https%3A%2F%2Ffonts.googleapis.com%2Fcss%3Ffamily%3DArchitects%2BDaughter;" parent="GUKkCShZy5PyPHcjqtOP-1" vertex="1">
          <mxGeometry x="30" y="175" width="130" height="30" as="geometry" />
        </mxCell>
        <mxCell id="GHbuqxX5vG7cR6NfMnXz-11" value="Funcionalidad" style="text;html=1;strokeColor=none;fillColor=none;align=left;verticalAlign=middle;whiteSpace=wrap;rounded=0;sketch=1;curveFitting=1;jiggle=2;fontFamily=Architects Daughter;fontSource=https%3A%2F%2Ffonts.googleapis.com%2Fcss%3Ffamily%3DArchitects%2BDaughter;" parent="GUKkCShZy5PyPHcjqtOP-1" vertex="1">
          <mxGeometry x="30" y="195" width="130" height="30" as="geometry" />
        </mxCell>
        <mxCell id="GHbuqxX5vG7cR6NfMnXz-12" value="Diagrama de clases" style="rounded=1;whiteSpace=wrap;html=1;arcSize=32;sketch=1;curveFitting=1;jiggle=2;fontFamily=Architects Daughter;fontSource=https%3A%2F%2Ffonts.googleapis.com%2Fcss%3Ffamily%3DArchitects%2BDaughter;" parent="GUKkCShZy5PyPHcjqtOP-1" vertex="1">
          <mxGeometry x="30" y="80" width="90" height="60" as="geometry" />
        </mxCell>
        <mxCell id="GHbuqxX5vG7cR6NfMnXz-13" value="Diagrama de secuencia" style="rounded=1;whiteSpace=wrap;html=1;arcSize=32;sketch=1;curveFitting=1;jiggle=2;fontFamily=Architects Daughter;fontSource=https%3A%2F%2Ffonts.googleapis.com%2Fcss%3Ffamily%3DArchitects%2BDaughter;" parent="GUKkCShZy5PyPHcjqtOP-1" vertex="1">
          <mxGeometry x="140" y="80" width="90" height="60" as="geometry" />
        </mxCell>
        <mxCell id="GHbuqxX5vG7cR6NfMnXz-14" value="Diagrama de comunucacion" style="rounded=1;whiteSpace=wrap;html=1;arcSize=32;sketch=1;curveFitting=1;jiggle=2;fontFamily=Architects Daughter;fontSource=https%3A%2F%2Ffonts.googleapis.com%2Fcss%3Ffamily%3DArchitects%2BDaughter;" parent="GUKkCShZy5PyPHcjqtOP-1" vertex="1">
          <mxGeometry x="250" y="80" width="90" height="60" as="geometry" />
        </mxCell>
        <mxCell id="GHbuqxX5vG7cR6NfMnXz-15" value="Vista Proceso" style="text;html=1;strokeColor=none;fillColor=none;align=center;verticalAlign=middle;whiteSpace=wrap;rounded=0;sketch=1;curveFitting=1;jiggle=2;fontFamily=Architects Daughter;fontSource=https%3A%2F%2Ffonts.googleapis.com%2Fcss%3Ffamily%3DArchitects%2BDaughter;" parent="GUKkCShZy5PyPHcjqtOP-1" vertex="1">
          <mxGeometry x="120" y="390" width="130" height="30" as="geometry" />
        </mxCell>
        <mxCell id="GHbuqxX5vG7cR6NfMnXz-16" value="Integradores" style="text;html=1;strokeColor=none;fillColor=none;align=left;verticalAlign=middle;whiteSpace=wrap;rounded=0;sketch=1;curveFitting=1;jiggle=2;fontFamily=Architects Daughter;fontSource=https%3A%2F%2Ffonts.googleapis.com%2Fcss%3Ffamily%3DArchitects%2BDaughter;" parent="GUKkCShZy5PyPHcjqtOP-1" vertex="1">
          <mxGeometry x="33" y="330" width="150" height="30" as="geometry" />
        </mxCell>
        <mxCell id="GHbuqxX5vG7cR6NfMnXz-17" value="Rendimiento y escalabilidad" style="text;html=1;strokeColor=none;fillColor=none;align=left;verticalAlign=middle;whiteSpace=wrap;rounded=0;sketch=1;curveFitting=1;jiggle=2;fontFamily=Architects Daughter;fontSource=https%3A%2F%2Ffonts.googleapis.com%2Fcss%3Ffamily%3DArchitects%2BDaughter;" parent="GUKkCShZy5PyPHcjqtOP-1" vertex="1">
          <mxGeometry x="33" y="350" width="160" height="30" as="geometry" />
        </mxCell>
        <UserObject label="Diagrama de actividad" id="GHbuqxX5vG7cR6NfMnXz-18">
          <mxCell style="rounded=1;whiteSpace=wrap;html=1;arcSize=32;sketch=1;curveFitting=1;jiggle=2;fontFamily=Architects Daughter;fontSource=https%3A%2F%2Ffonts.googleapis.com%2Fcss%3Ffamily%3DArchitects%2BDaughter;" parent="GUKkCShZy5PyPHcjqtOP-1" vertex="1">
            <mxGeometry x="140" y="420" width="90" height="60" as="geometry" />
          </mxCell>
        </UserObject>
        <mxCell id="GHbuqxX5vG7cR6NfMnXz-19" value="Fisico" style="text;html=1;strokeColor=none;fillColor=none;align=center;verticalAlign=middle;whiteSpace=wrap;rounded=0;sketch=1;curveFitting=1;jiggle=2;fontFamily=Architects Daughter;fontSource=https%3A%2F%2Ffonts.googleapis.com%2Fcss%3Ffamily%3DArchitects%2BDaughter;" parent="GUKkCShZy5PyPHcjqtOP-1" vertex="1">
          <mxGeometry x="525" y="20" width="150" height="30" as="geometry" />
        </mxCell>
        <mxCell id="GHbuqxX5vG7cR6NfMnXz-20" value="Vista Desarrollo" style="text;html=1;strokeColor=none;fillColor=none;align=center;verticalAlign=middle;whiteSpace=wrap;rounded=0;sketch=1;curveFitting=1;jiggle=2;fontFamily=Architects Daughter;fontSource=https%3A%2F%2Ffonts.googleapis.com%2Fcss%3Ffamily%3DArchitects%2BDaughter;" parent="GUKkCShZy5PyPHcjqtOP-1" vertex="1">
          <mxGeometry x="551" y="147" width="130" height="30" as="geometry" />
        </mxCell>
        <mxCell id="GHbuqxX5vG7cR6NfMnXz-21" value="Desarrolladores" style="text;html=1;strokeColor=none;fillColor=none;align=right;verticalAlign=middle;whiteSpace=wrap;rounded=0;sketch=1;curveFitting=1;jiggle=2;fontFamily=Architects Daughter;fontSource=https%3A%2F%2Ffonts.googleapis.com%2Fcss%3Ffamily%3DArchitects%2BDaughter;" parent="GUKkCShZy5PyPHcjqtOP-1" vertex="1">
          <mxGeometry x="640" y="185" width="130" height="30" as="geometry" />
        </mxCell>
        <mxCell id="GHbuqxX5vG7cR6NfMnXz-22" value="Gestion del software" style="text;html=1;strokeColor=none;fillColor=none;align=right;verticalAlign=middle;whiteSpace=wrap;rounded=0;sketch=1;curveFitting=1;jiggle=2;fontFamily=Architects Daughter;fontSource=https%3A%2F%2Ffonts.googleapis.com%2Fcss%3Ffamily%3DArchitects%2BDaughter;" parent="GUKkCShZy5PyPHcjqtOP-1" vertex="1">
          <mxGeometry x="640" y="205" width="130" height="30" as="geometry" />
        </mxCell>
        <mxCell id="GHbuqxX5vG7cR6NfMnXz-23" value="Diagrama de componentes" style="rounded=1;whiteSpace=wrap;html=1;arcSize=32;sketch=1;curveFitting=1;jiggle=2;fontFamily=Architects Daughter;fontSource=https%3A%2F%2Ffonts.googleapis.com%2Fcss%3Ffamily%3DArchitects%2BDaughter;" parent="GUKkCShZy5PyPHcjqtOP-1" vertex="1">
          <mxGeometry x="516" y="80" width="90" height="60" as="geometry" />
        </mxCell>
        <mxCell id="GHbuqxX5vG7cR6NfMnXz-24" value="Diagrama de paquetes" style="rounded=1;whiteSpace=wrap;html=1;arcSize=32;sketch=1;curveFitting=1;jiggle=2;fontFamily=Architects Daughter;fontSource=https%3A%2F%2Ffonts.googleapis.com%2Fcss%3Ffamily%3DArchitects%2BDaughter;" parent="GUKkCShZy5PyPHcjqtOP-1" vertex="1">
          <mxGeometry x="626" y="80" width="90" height="60" as="geometry" />
        </mxCell>
        <mxCell id="GHbuqxX5vG7cR6NfMnXz-25" value="Vista Fisica" style="text;html=1;strokeColor=none;fillColor=none;align=center;verticalAlign=middle;whiteSpace=wrap;rounded=0;sketch=1;curveFitting=1;jiggle=2;fontFamily=Architects Daughter;fontSource=https%3A%2F%2Ffonts.googleapis.com%2Fcss%3Ffamily%3DArchitects%2BDaughter;" parent="GUKkCShZy5PyPHcjqtOP-1" vertex="1">
          <mxGeometry x="551" y="390" width="130" height="30" as="geometry" />
        </mxCell>
        <mxCell id="GHbuqxX5vG7cR6NfMnXz-26" value="Administradores&amp;nbsp; de sistemas" style="text;html=1;strokeColor=none;fillColor=none;align=right;verticalAlign=middle;whiteSpace=wrap;rounded=0;sketch=1;curveFitting=1;jiggle=2;fontFamily=Architects Daughter;fontSource=https%3A%2F%2Ffonts.googleapis.com%2Fcss%3Ffamily%3DArchitects%2BDaughter;" parent="GUKkCShZy5PyPHcjqtOP-1" vertex="1">
          <mxGeometry x="590" y="330" width="180" height="30" as="geometry" />
        </mxCell>
        <mxCell id="GHbuqxX5vG7cR6NfMnXz-27" value="Topologia del sistema" style="text;html=1;strokeColor=none;fillColor=none;align=right;verticalAlign=middle;whiteSpace=wrap;rounded=0;sketch=1;curveFitting=1;jiggle=2;fontFamily=Architects Daughter;fontSource=https%3A%2F%2Ffonts.googleapis.com%2Fcss%3Ffamily%3DArchitects%2BDaughter;" parent="GUKkCShZy5PyPHcjqtOP-1" vertex="1">
          <mxGeometry x="640" y="350" width="130" height="30" as="geometry" />
        </mxCell>
        <mxCell id="GHbuqxX5vG7cR6NfMnXz-28" value="Diagrama de Despliegue" style="rounded=1;whiteSpace=wrap;html=1;arcSize=32;sketch=1;curveFitting=1;jiggle=2;fontFamily=Architects Daughter;fontSource=https%3A%2F%2Ffonts.googleapis.com%2Fcss%3Ffamily%3DArchitects%2BDaughter;" parent="GUKkCShZy5PyPHcjqtOP-1" vertex="1">
          <mxGeometry x="571" y="420" width="90" height="60" as="geometry" />
        </mxCell>
        <mxCell id="GHbuqxX5vG7cR6NfMnXz-29" value="Vista Escenarios" style="text;html=1;strokeColor=none;fillColor=none;align=center;verticalAlign=middle;whiteSpace=wrap;rounded=0;sketch=1;curveFitting=1;jiggle=2;fontFamily=Architects Daughter;fontSource=https%3A%2F%2Ffonts.googleapis.com%2Fcss%3Ffamily%3DArchitects%2BDaughter;" parent="GUKkCShZy5PyPHcjqtOP-1" vertex="1">
          <mxGeometry x="375" y="235" width="60" height="30" as="geometry" />
        </mxCell>
        <UserObject label="Diagrama de Casos de uso" link="data:page/id,e-DazdNSSwbjZ-o5UTgS" id="GHbuqxX5vG7cR6NfMnXz-30">
          <mxCell style="rounded=1;whiteSpace=wrap;html=1;arcSize=32;sketch=1;curveFitting=1;jiggle=2;fontFamily=Architects Daughter;fontSource=https%3A%2F%2Ffonts.googleapis.com%2Fcss%3Ffamily%3DArchitects%2BDaughter;" parent="GUKkCShZy5PyPHcjqtOP-1" vertex="1">
            <mxGeometry x="360" y="280" width="90" height="60" as="geometry" />
          </mxCell>
        </UserObject>
      </root>
    </mxGraphModel>
  </diagram>
  <diagram id="e-DazdNSSwbjZ-o5UTgS" name="CU - Menu">
    <mxGraphModel dx="941" dy="581" grid="1" gridSize="10" guides="1" tooltips="1" connect="1" arrows="1" fold="1" page="0" pageScale="1" pageWidth="850" pageHeight="1100" math="0" shadow="0">
      <root>
        <mxCell id="0" />
        <mxCell id="1" parent="0" />
        <mxCell id="kGaSGXUokFWjoGUEz2ni-6" value="" style="group" vertex="1" connectable="0" parent="1">
          <mxGeometry width="750" height="600" as="geometry" />
        </mxCell>
        <mxCell id="e3J21kya-U3t_W_ES4cw-2" value="" style="rounded=0;whiteSpace=wrap;html=1;sketch=1;hachureGap=4;jiggle=2;curveFitting=1;fontFamily=Architects Daughter;fontSource=https%3A%2F%2Ffonts.googleapis.com%2Fcss%3Ffamily%3DArchitects%2BDaughter;fontSize=20;" parent="kGaSGXUokFWjoGUEz2ni-6" vertex="1">
          <mxGeometry width="750" height="600" as="geometry" />
        </mxCell>
        <mxCell id="e3J21kya-U3t_W_ES4cw-3" value="&lt;h1&gt;Casos de uso&lt;/h1&gt;&lt;p&gt;Expresa todo lo que va permitir el sistema y le da sentido a las demás vistas. Se centra en los requisitos funcionales del sistema, mostrando cómo diferentes actores interactúan con el sistema para lograr objetivos específicos. Esta vista ayuda a comprender la funcionalidad del sistema desde la perspectiva cualquier usuario.&lt;/p&gt;" style="text;html=1;strokeColor=none;fillColor=none;spacing=5;spacingTop=-20;whiteSpace=wrap;overflow=hidden;rounded=0;fontSize=20;fontFamily=Architects Daughter;" parent="kGaSGXUokFWjoGUEz2ni-6" vertex="1">
          <mxGeometry x="20" y="50" width="710" height="230" as="geometry" />
        </mxCell>
        <UserObject label="Generalizacion de actores" link="data:page/id,vNWMk92_j4dSVM1HQU4E" id="e3J21kya-U3t_W_ES4cw-4">
          <mxCell style="rounded=1;whiteSpace=wrap;html=1;sketch=1;hachureGap=4;jiggle=2;curveFitting=1;fontFamily=Architects Daughter;fontSource=https%3A%2F%2Ffonts.googleapis.com%2Fcss%3Ffamily%3DArchitects%2BDaughter;fontSize=20;arcSize=50;" parent="kGaSGXUokFWjoGUEz2ni-6" vertex="1">
            <mxGeometry x="280" y="300" width="190" height="60" as="geometry" />
          </mxCell>
        </UserObject>
        <UserObject label="(MOD-001)&lt;br&gt;&lt;i style=&quot;border-color: var(--border-color); font-size: 12px;&quot;&gt;Gestión de Ayudas&lt;/i&gt;" link="data:page/id,I9eKHZl-COyITAfP1DYY" id="e3J21kya-U3t_W_ES4cw-5">
          <mxCell style="rounded=1;whiteSpace=wrap;html=1;sketch=1;hachureGap=4;jiggle=2;curveFitting=1;fontFamily=Architects Daughter;fontSource=https%3A%2F%2Ffonts.googleapis.com%2Fcss%3Ffamily%3DArchitects%2BDaughter;fontSize=20;arcSize=50;" parent="kGaSGXUokFWjoGUEz2ni-6" vertex="1">
            <mxGeometry x="138" y="390" width="190" height="60" as="geometry" />
          </mxCell>
        </UserObject>
        <UserObject label="(MOD-002)&lt;br&gt;&lt;i style=&quot;border-color: var(--border-color); font-size: 12px;&quot;&gt;Medición de Impacto&lt;/i&gt;" link="data:page/id,iWbtqFWxXVhWIT0iU2Vk" id="LKov9uj5PLb3QI0iCRI1-1">
          <mxCell style="rounded=1;whiteSpace=wrap;html=1;sketch=1;hachureGap=4;jiggle=2;curveFitting=1;fontFamily=Architects Daughter;fontSource=https%3A%2F%2Ffonts.googleapis.com%2Fcss%3Ffamily%3DArchitects%2BDaughter;fontSize=20;arcSize=50;" parent="kGaSGXUokFWjoGUEz2ni-6" vertex="1">
            <mxGeometry x="422" y="390" width="190" height="60" as="geometry" />
          </mxCell>
        </UserObject>
        <UserObject label="(MOD-003)&lt;br&gt;&lt;i style=&quot;border-color: var(--border-color); font-size: 12px;&quot;&gt;Interoperabilidad&lt;/i&gt;" link="data:page/id,eMnD9ueBGQKzejU1eeqi" id="ZA2e70PSki9CQRMcPcXu-1">
          <mxCell style="rounded=1;whiteSpace=wrap;html=1;sketch=1;hachureGap=4;jiggle=2;curveFitting=1;fontFamily=Architects Daughter;fontSource=https%3A%2F%2Ffonts.googleapis.com%2Fcss%3Ffamily%3DArchitects%2BDaughter;fontSize=20;arcSize=50;" parent="kGaSGXUokFWjoGUEz2ni-6" vertex="1">
            <mxGeometry x="138" y="490" width="190" height="60" as="geometry" />
          </mxCell>
        </UserObject>
        <UserObject label="(MOD-004)&lt;br&gt;&lt;i style=&quot;border-color: var(--border-color); font-size: 12px;&quot;&gt;Gestion del sistema&lt;/i&gt;" link="data:page/id,YkuYbw_YZ6iwioSiSQ1l" id="gNLTVA_sjDkd-e3nvTdO-1">
          <mxCell style="rounded=1;whiteSpace=wrap;html=1;sketch=1;hachureGap=4;jiggle=2;curveFitting=1;fontFamily=Architects Daughter;fontSource=https%3A%2F%2Ffonts.googleapis.com%2Fcss%3Ffamily%3DArchitects%2BDaughter;fontSize=20;arcSize=50;" parent="kGaSGXUokFWjoGUEz2ni-6" vertex="1">
            <mxGeometry x="422" y="490" width="190" height="60" as="geometry" />
          </mxCell>
        </UserObject>
        <mxCell id="CLDo8OdDSu0E9bk6Z8T0-3" value="" style="group" vertex="1" connectable="0" parent="kGaSGXUokFWjoGUEz2ni-6">
          <mxGeometry x="380" width="370" height="90" as="geometry" />
        </mxCell>
        <mxCell id="CLDo8OdDSu0E9bk6Z8T0-1" value="" style="rounded=0;whiteSpace=wrap;html=1;sketch=1;hachureGap=4;jiggle=2;curveFitting=1;fontFamily=Architects Daughter;fontSource=https%3A%2F%2Ffonts.googleapis.com%2Fcss%3Ffamily%3DArchitects%2BDaughter;fontSize=20;fillColor=none;strokeColor=none;" vertex="1" parent="CLDo8OdDSu0E9bk6Z8T0-3">
          <mxGeometry width="370" height="90" as="geometry" />
        </mxCell>
        <UserObject label="" link="data:page/id,vNWMk92_j4dSVM1HQU4E" id="kGaSGXUokFWjoGUEz2ni-8">
          <mxCell style="triangle;whiteSpace=wrap;html=1;sketch=1;hachureGap=4;jiggle=2;curveFitting=1;fontFamily=Architects Daughter;fontSource=https%3A%2F%2Ffonts.googleapis.com%2Fcss%3Ffamily%3DArchitects%2BDaughter;fontSize=20;" vertex="1" parent="CLDo8OdDSu0E9bk6Z8T0-3">
            <mxGeometry x="325" y="20" width="30" height="50" as="geometry" />
          </mxCell>
        </UserObject>
        <UserObject label="" link="data:page/id,whgJcLObAnrZEsQRWRJR" id="kGaSGXUokFWjoGUEz2ni-9">
          <mxCell style="triangle;whiteSpace=wrap;html=1;sketch=1;hachureGap=4;jiggle=2;curveFitting=1;fontFamily=Architects Daughter;fontSource=https%3A%2F%2Ffonts.googleapis.com%2Fcss%3Ffamily%3DArchitects%2BDaughter;fontSize=20;flipH=1;" vertex="1" parent="CLDo8OdDSu0E9bk6Z8T0-3">
            <mxGeometry x="248" y="20" width="30" height="50" as="geometry" />
          </mxCell>
        </UserObject>
        <UserObject label="&lt;p style=&quot;line-height: 60%;&quot;&gt;&lt;font style=&quot;font-size: 13px;&quot;&gt;All&lt;br&gt;Views&lt;/font&gt;&lt;/p&gt;" link="data:page/id,whgJcLObAnrZEsQRWRJR" id="kGaSGXUokFWjoGUEz2ni-15">
          <mxCell style="whiteSpace=wrap;html=1;shape=mxgraph.basic.pentagon;sketch=1;hachureGap=4;jiggle=2;curveFitting=1;fontFamily=Architects Daughter;fontSource=https%3A%2F%2Ffonts.googleapis.com%2Fcss%3Ffamily%3DArchitects%2BDaughter;fontSize=20;" vertex="1" parent="CLDo8OdDSu0E9bk6Z8T0-3">
            <mxGeometry x="20" y="20" width="60" height="50" as="geometry" />
          </mxCell>
        </UserObject>
        <UserObject label="" link="data:page/id,whgJcLObAnrZEsQRWRJR" id="Kw0eJcVcpyS8_HaSv1Sk-3">
          <mxCell style="verticalLabelPosition=bottom;verticalAlign=top;html=1;shape=mxgraph.basic.4_point_star_2;dx=0.8;sketch=1;hachureGap=4;jiggle=2;curveFitting=1;fontFamily=Architects Daughter;fontSource=https%3A%2F%2Ffonts.googleapis.com%2Fcss%3Ffamily%3DArchitects%2BDaughter;fontSize=20;" vertex="1" parent="CLDo8OdDSu0E9bk6Z8T0-3">
            <mxGeometry x="160" y="20" width="50" height="50" as="geometry" />
          </mxCell>
        </UserObject>
      </root>
    </mxGraphModel>
  </diagram>
  <diagram name="CU - Generalizaciones" id="vNWMk92_j4dSVM1HQU4E">
    <mxGraphModel dx="1137" dy="703" grid="1" gridSize="10" guides="1" tooltips="1" connect="1" arrows="1" fold="1" page="0" pageScale="1" pageWidth="850" pageHeight="1100" math="0" shadow="0">
      <root>
        <mxCell id="hmnusjL66eG4b-l73r94-0" />
        <mxCell id="hmnusjL66eG4b-l73r94-1" parent="hmnusjL66eG4b-l73r94-0" />
        <mxCell id="hmnusjL66eG4b-l73r94-127" value="&lt;font style=&quot;font-size: 25px;&quot;&gt;&lt;b&gt;Generalizacion de actores&lt;br&gt;&lt;/b&gt;&lt;i&gt;Gerarquia de herencia&lt;/i&gt;&lt;/font&gt;" style="shape=umlFrame;whiteSpace=wrap;html=1;pointerEvents=0;width=360;height=80;sketch=1;curveFitting=1;jiggle=2;fontFamily=Architects Daughter;fontSource=https%3A%2F%2Ffonts.googleapis.com%2Fcss%3Ffamily%3DArchitects%2BDaughter;" vertex="1" parent="hmnusjL66eG4b-l73r94-1">
          <mxGeometry width="750" height="695" as="geometry" />
        </mxCell>
        <UserObject label="Beneficiario&lt;br&gt;&lt;b&gt;ACT-001&lt;/b&gt;" link="https://github.com/yeiferamunozt/ProActHelp/blob/design/Arquitectura%20de%20software/Requerimientos/Identificacion.md#act-001" linkTarget="_blank" id="hmnusjL66eG4b-l73r94-128">
          <mxCell style="shape=umlActor;verticalLabelPosition=bottom;verticalAlign=top;html=1;outlineConnect=0;sketch=1;curveFitting=1;jiggle=2;fontFamily=Architects Daughter;fontSource=https%3A%2F%2Ffonts.googleapis.com%2Fcss%3Ffamily%3DArchitects%2BDaughter;" vertex="1" parent="hmnusjL66eG4b-l73r94-1">
            <mxGeometry x="510" y="363" width="30" height="60" as="geometry" />
          </mxCell>
        </UserObject>
        <UserObject label="Voluntario&lt;br&gt;&lt;b&gt;ACT-002&lt;/b&gt;" link="https://github.com/yeiferamunozt/ProActHelp/blob/design/Arquitectura%20de%20software/Requerimientos/Identificacion.md#act-002" linkTarget="_blank" id="hmnusjL66eG4b-l73r94-129">
          <mxCell style="shape=umlActor;verticalLabelPosition=bottom;verticalAlign=top;html=1;outlineConnect=0;sketch=1;curveFitting=1;jiggle=2;fontFamily=Architects Daughter;fontSource=https%3A%2F%2Ffonts.googleapis.com%2Fcss%3Ffamily%3DArchitects%2BDaughter;" vertex="1" parent="hmnusjL66eG4b-l73r94-1">
            <mxGeometry x="130" y="178" width="30" height="60" as="geometry" />
          </mxCell>
        </UserObject>
        <UserObject label="Organización cooperante&lt;br&gt;&lt;b&gt;ACT-003&lt;/b&gt;" link="https://github.com/yeiferamunozt/ProActHelp/blob/design/Arquitectura%20de%20software/Requerimientos/Identificacion.md#act-003" linkTarget="_blank" id="hmnusjL66eG4b-l73r94-130">
          <mxCell style="shape=umlActor;verticalLabelPosition=bottom;verticalAlign=top;html=1;outlineConnect=0;sketch=1;curveFitting=1;jiggle=2;fontFamily=Architects Daughter;fontSource=https%3A%2F%2Ffonts.googleapis.com%2Fcss%3Ffamily%3DArchitects%2BDaughter;" vertex="1" parent="hmnusjL66eG4b-l73r94-1">
            <mxGeometry x="120" y="317.5" width="30" height="60" as="geometry" />
          </mxCell>
        </UserObject>
        <UserObject label="Organización de base&lt;br&gt;&lt;b&gt;ACT-004&lt;/b&gt;" link="https://github.com/yeiferamunozt/ProActHelp/blob/design/Arquitectura%20de%20software/Requerimientos/Identificacion.md#act-004" linkTarget="_blank" id="hmnusjL66eG4b-l73r94-131">
          <mxCell style="shape=umlActor;verticalLabelPosition=bottom;verticalAlign=top;html=1;outlineConnect=0;sketch=1;curveFitting=1;jiggle=2;fontFamily=Architects Daughter;fontSource=https%3A%2F%2Ffonts.googleapis.com%2Fcss%3Ffamily%3DArchitects%2BDaughter;" vertex="1" parent="hmnusjL66eG4b-l73r94-1">
            <mxGeometry x="150" y="445" width="30" height="60" as="geometry" />
          </mxCell>
        </UserObject>
        <UserObject label="Administrador de territorio&lt;br&gt;&lt;b&gt;ACT-005&lt;/b&gt;" link="https://github.com/yeiferamunozt/ProActHelp/blob/design/Arquitectura%20de%20software/Requerimientos/Identificacion.md#act-005" linkTarget="_blank" id="hmnusjL66eG4b-l73r94-132">
          <mxCell style="shape=umlActor;verticalLabelPosition=bottom;verticalAlign=top;html=1;outlineConnect=0;sketch=1;curveFitting=1;jiggle=2;fontFamily=Architects Daughter;fontSource=https%3A%2F%2Ffonts.googleapis.com%2Fcss%3Ffamily%3DArchitects%2BDaughter;" vertex="1" parent="hmnusjL66eG4b-l73r94-1">
            <mxGeometry x="560" y="260" width="30" height="60" as="geometry" />
          </mxCell>
        </UserObject>
        <UserObject label="Super Administrador&lt;br&gt;&lt;b&gt;ACT-006&lt;/b&gt;" link="https://github.com/yeiferamunozt/ProActHelp/blob/design/Arquitectura%20de%20software/Requerimientos/Identificacion.md#act-006" linkTarget="_blank" id="hmnusjL66eG4b-l73r94-133">
          <mxCell style="shape=umlActor;verticalLabelPosition=bottom;verticalAlign=top;html=1;outlineConnect=0;sketch=1;curveFitting=1;jiggle=2;fontFamily=Architects Daughter;fontSource=https%3A%2F%2Ffonts.googleapis.com%2Fcss%3Ffamily%3DArchitects%2BDaughter;" vertex="1" parent="hmnusjL66eG4b-l73r94-1">
            <mxGeometry x="445" y="465" width="30" height="60" as="geometry" />
          </mxCell>
        </UserObject>
        <UserObject label="Semillero&lt;br&gt;&lt;b&gt;ACT-007&lt;/b&gt;" link="https://github.com/yeiferamunozt/ProActHelp/blob/design/Arquitectura%20de%20software/Requerimientos/Identificacion.md#act-007" linkTarget="_blank" id="hmnusjL66eG4b-l73r94-134">
          <mxCell style="shape=umlActor;verticalLabelPosition=bottom;verticalAlign=top;html=1;outlineConnect=0;sketch=1;curveFitting=1;jiggle=2;fontFamily=Architects Daughter;fontSource=https%3A%2F%2Ffonts.googleapis.com%2Fcss%3Ffamily%3DArchitects%2BDaughter;" vertex="1" parent="hmnusjL66eG4b-l73r94-1">
            <mxGeometry x="610" y="465" width="30" height="60" as="geometry" />
          </mxCell>
        </UserObject>
        <UserObject label="Usuario&lt;br&gt;&lt;b&gt;ACT-008&lt;/b&gt;" link="https://github.com/yeiferamunozt/ProActHelp/blob/design/Arquitectura%20de%20software/Requerimientos/Identificacion.md#act-008" linkTarget="_blank" id="hmnusjL66eG4b-l73r94-135">
          <mxCell style="shape=umlActor;verticalLabelPosition=bottom;verticalAlign=top;html=1;outlineConnect=0;sketch=1;curveFitting=1;jiggle=2;fontFamily=Architects Daughter;fontSource=https%3A%2F%2Ffonts.googleapis.com%2Fcss%3Ffamily%3DArchitects%2BDaughter;" vertex="1" parent="hmnusjL66eG4b-l73r94-1">
            <mxGeometry x="305" y="320" width="30" height="60" as="geometry" />
          </mxCell>
        </UserObject>
        <UserObject label="Modelo analítico&lt;br&gt;&lt;b&gt;ACT-009&lt;/b&gt;" link="https://github.com/yeiferamunozt/ProActHelp/blob/design/Arquitectura%20de%20software/Requerimientos/Identificacion.md#act-009" linkTarget="_blank" id="hmnusjL66eG4b-l73r94-136">
          <mxCell style="shape=umlActor;verticalLabelPosition=bottom;verticalAlign=top;html=1;outlineConnect=0;sketch=1;curveFitting=1;jiggle=2;fontFamily=Architects Daughter;fontSource=https%3A%2F%2Ffonts.googleapis.com%2Fcss%3Ffamily%3DArchitects%2BDaughter;" vertex="1" parent="hmnusjL66eG4b-l73r94-1">
            <mxGeometry x="500" y="178" width="30" height="60" as="geometry" />
          </mxCell>
        </UserObject>
        <mxCell id="hmnusjL66eG4b-l73r94-137" value="" style="endArrow=block;endFill=0;endSize=12;html=1;rounded=0;sketch=1;curveFitting=1;jiggle=2;fontFamily=Architects Daughter;fontSource=https%3A%2F%2Ffonts.googleapis.com%2Fcss%3Ffamily%3DArchitects%2BDaughter;" edge="1" parent="hmnusjL66eG4b-l73r94-1" source="hmnusjL66eG4b-l73r94-134" target="hmnusjL66eG4b-l73r94-133">
          <mxGeometry width="160" relative="1" as="geometry">
            <mxPoint x="375" y="760" as="sourcePoint" />
            <mxPoint x="535" y="760" as="targetPoint" />
          </mxGeometry>
        </mxCell>
        <mxCell id="hmnusjL66eG4b-l73r94-138" value="" style="endArrow=block;endFill=0;endSize=12;html=1;rounded=0;sketch=1;curveFitting=1;jiggle=2;fontFamily=Architects Daughter;fontSource=https%3A%2F%2Ffonts.googleapis.com%2Fcss%3Ffamily%3DArchitects%2BDaughter;" edge="1" parent="hmnusjL66eG4b-l73r94-1" source="hmnusjL66eG4b-l73r94-133" target="hmnusjL66eG4b-l73r94-135">
          <mxGeometry width="160" relative="1" as="geometry">
            <mxPoint x="615" y="720" as="sourcePoint" />
            <mxPoint x="405" y="570" as="targetPoint" />
          </mxGeometry>
        </mxCell>
        <mxCell id="hmnusjL66eG4b-l73r94-139" value="" style="endArrow=block;endFill=0;endSize=12;html=1;rounded=0;sketch=1;curveFitting=1;jiggle=2;fontFamily=Architects Daughter;fontSource=https%3A%2F%2Ffonts.googleapis.com%2Fcss%3Ffamily%3DArchitects%2BDaughter;" edge="1" parent="hmnusjL66eG4b-l73r94-1" source="hmnusjL66eG4b-l73r94-128" target="hmnusjL66eG4b-l73r94-135">
          <mxGeometry width="160" relative="1" as="geometry">
            <mxPoint x="165" y="250" as="sourcePoint" />
            <mxPoint x="225" y="507" as="targetPoint" />
          </mxGeometry>
        </mxCell>
        <mxCell id="hmnusjL66eG4b-l73r94-140" value="" style="endArrow=block;endFill=0;endSize=12;html=1;rounded=0;sketch=1;curveFitting=1;jiggle=2;fontFamily=Architects Daughter;fontSource=https%3A%2F%2Ffonts.googleapis.com%2Fcss%3Ffamily%3DArchitects%2BDaughter;" edge="1" parent="hmnusjL66eG4b-l73r94-1" source="hmnusjL66eG4b-l73r94-129" target="hmnusjL66eG4b-l73r94-135">
          <mxGeometry width="160" relative="1" as="geometry">
            <mxPoint x="164" y="120" as="sourcePoint" />
            <mxPoint x="206" y="460" as="targetPoint" />
          </mxGeometry>
        </mxCell>
        <mxCell id="hmnusjL66eG4b-l73r94-141" value="" style="endArrow=block;endFill=0;endSize=12;html=1;rounded=0;sketch=1;curveFitting=1;jiggle=2;fontFamily=Architects Daughter;fontSource=https%3A%2F%2Ffonts.googleapis.com%2Fcss%3Ffamily%3DArchitects%2BDaughter;" edge="1" parent="hmnusjL66eG4b-l73r94-1" source="hmnusjL66eG4b-l73r94-130" target="hmnusjL66eG4b-l73r94-135">
          <mxGeometry width="160" relative="1" as="geometry">
            <mxPoint x="465" y="84" as="sourcePoint" />
            <mxPoint x="225" y="466" as="targetPoint" />
          </mxGeometry>
        </mxCell>
        <mxCell id="hmnusjL66eG4b-l73r94-142" value="" style="endArrow=block;endFill=0;endSize=12;html=1;rounded=0;sketch=1;curveFitting=1;jiggle=2;fontFamily=Architects Daughter;fontSource=https%3A%2F%2Ffonts.googleapis.com%2Fcss%3Ffamily%3DArchitects%2BDaughter;" edge="1" parent="hmnusjL66eG4b-l73r94-1" source="hmnusjL66eG4b-l73r94-131" target="hmnusjL66eG4b-l73r94-135">
          <mxGeometry width="160" relative="1" as="geometry">
            <mxPoint x="475" y="216" as="sourcePoint" />
            <mxPoint x="225" y="474" as="targetPoint" />
          </mxGeometry>
        </mxCell>
        <mxCell id="hmnusjL66eG4b-l73r94-143" value="" style="endArrow=block;endFill=0;endSize=12;html=1;rounded=0;sketch=1;curveFitting=1;jiggle=2;fontFamily=Architects Daughter;fontSource=https%3A%2F%2Ffonts.googleapis.com%2Fcss%3Ffamily%3DArchitects%2BDaughter;" edge="1" parent="hmnusjL66eG4b-l73r94-1" source="hmnusjL66eG4b-l73r94-132" target="hmnusjL66eG4b-l73r94-135">
          <mxGeometry width="160" relative="1" as="geometry">
            <mxPoint x="475" y="339" as="sourcePoint" />
            <mxPoint x="225" y="481" as="targetPoint" />
          </mxGeometry>
        </mxCell>
        <mxCell id="hmnusjL66eG4b-l73r94-144" value="" style="endArrow=block;endFill=0;endSize=12;html=1;rounded=0;sketch=1;curveFitting=1;jiggle=2;fontFamily=Architects Daughter;fontSource=https%3A%2F%2Ffonts.googleapis.com%2Fcss%3Ffamily%3DArchitects%2BDaughter;" edge="1" parent="hmnusjL66eG4b-l73r94-1" source="hmnusjL66eG4b-l73r94-136" target="hmnusjL66eG4b-l73r94-135">
          <mxGeometry width="160" relative="1" as="geometry">
            <mxPoint x="455" y="467" as="sourcePoint" />
            <mxPoint x="345" y="373" as="targetPoint" />
          </mxGeometry>
        </mxCell>
        <mxCell id="MzvKYa9EKevtRWZBW8KH-0" value="" style="group" vertex="1" connectable="0" parent="hmnusjL66eG4b-l73r94-1">
          <mxGeometry x="380" width="370" height="90" as="geometry" />
        </mxCell>
        <mxCell id="MzvKYa9EKevtRWZBW8KH-1" value="" style="rounded=0;whiteSpace=wrap;html=1;sketch=1;hachureGap=4;jiggle=2;curveFitting=1;fontFamily=Architects Daughter;fontSource=https%3A%2F%2Ffonts.googleapis.com%2Fcss%3Ffamily%3DArchitects%2BDaughter;fontSize=20;fillColor=none;strokeColor=none;" vertex="1" parent="MzvKYa9EKevtRWZBW8KH-0">
          <mxGeometry width="370" height="90" as="geometry" />
        </mxCell>
        <UserObject label="" link="data:page/id,I9eKHZl-COyITAfP1DYY" id="MzvKYa9EKevtRWZBW8KH-2">
          <mxCell style="triangle;whiteSpace=wrap;html=1;sketch=1;hachureGap=4;jiggle=2;curveFitting=1;fontFamily=Architects Daughter;fontSource=https%3A%2F%2Ffonts.googleapis.com%2Fcss%3Ffamily%3DArchitects%2BDaughter;fontSize=20;" vertex="1" parent="MzvKYa9EKevtRWZBW8KH-0">
            <mxGeometry x="325" y="20" width="30" height="50" as="geometry" />
          </mxCell>
        </UserObject>
        <UserObject label="" link="data:page/id,e-DazdNSSwbjZ-o5UTgS" id="MzvKYa9EKevtRWZBW8KH-3">
          <mxCell style="triangle;whiteSpace=wrap;html=1;sketch=1;hachureGap=4;jiggle=2;curveFitting=1;fontFamily=Architects Daughter;fontSource=https%3A%2F%2Ffonts.googleapis.com%2Fcss%3Ffamily%3DArchitects%2BDaughter;fontSize=20;flipH=1;" vertex="1" parent="MzvKYa9EKevtRWZBW8KH-0">
            <mxGeometry x="248" y="20" width="30" height="50" as="geometry" />
          </mxCell>
        </UserObject>
        <UserObject label="&lt;p style=&quot;line-height: 60%;&quot;&gt;&lt;font style=&quot;font-size: 13px;&quot;&gt;All&lt;br&gt;Views&lt;/font&gt;&lt;/p&gt;" link="data:page/id,whgJcLObAnrZEsQRWRJR" id="MzvKYa9EKevtRWZBW8KH-5">
          <mxCell style="whiteSpace=wrap;html=1;shape=mxgraph.basic.pentagon;sketch=1;hachureGap=4;jiggle=2;curveFitting=1;fontFamily=Architects Daughter;fontSource=https%3A%2F%2Ffonts.googleapis.com%2Fcss%3Ffamily%3DArchitects%2BDaughter;fontSize=20;" vertex="1" parent="MzvKYa9EKevtRWZBW8KH-0">
            <mxGeometry x="20" y="20" width="60" height="50" as="geometry" />
          </mxCell>
        </UserObject>
        <UserObject label="" link="data:page/id,e-DazdNSSwbjZ-o5UTgS" id="r9TQhsPp9wL9FIXRg5Ps-0">
          <mxCell style="verticalLabelPosition=bottom;verticalAlign=top;html=1;shape=mxgraph.basic.4_point_star_2;dx=0.8;sketch=1;hachureGap=4;jiggle=2;curveFitting=1;fontFamily=Architects Daughter;fontSource=https%3A%2F%2Ffonts.googleapis.com%2Fcss%3Ffamily%3DArchitects%2BDaughter;fontSize=20;" vertex="1" parent="MzvKYa9EKevtRWZBW8KH-0">
            <mxGeometry x="160" y="20" width="50" height="50" as="geometry" />
          </mxCell>
        </UserObject>
      </root>
    </mxGraphModel>
  </diagram>
  <diagram name="CU - MOD001" id="I9eKHZl-COyITAfP1DYY">
    <mxGraphModel dx="2498" dy="1297" grid="1" gridSize="10" guides="1" tooltips="1" connect="1" arrows="1" fold="1" page="0" pageScale="1" pageWidth="850" pageHeight="1100" math="0" shadow="0">
      <root>
        <mxCell id="FHbYtA2qFltiSmcxUKpC-0" />
        <mxCell id="FHbYtA2qFltiSmcxUKpC-1" parent="FHbYtA2qFltiSmcxUKpC-0" />
        <mxCell id="FHbYtA2qFltiSmcxUKpC-31" value="&lt;b style=&quot;font-size: 25px;&quot;&gt;&lt;font style=&quot;font-size: 25px;&quot;&gt;Casos de uso&lt;br&gt;&lt;/font&gt;&lt;/b&gt;&lt;div style=&quot;font-size: 25px;&quot;&gt;&lt;font style=&quot;font-size: 25px;&quot;&gt;(MOD-001)&lt;i style=&quot;&quot;&gt;&amp;nbsp;- Gestión de Ayudas&lt;/i&gt;&lt;/font&gt;&lt;/div&gt;" style="shape=umlFrame;whiteSpace=wrap;html=1;pointerEvents=0;width=420;height=80;sketch=1;curveFitting=1;jiggle=2;fontFamily=Architects Daughter;fontSource=https%3A%2F%2Ffonts.googleapis.com%2Fcss%3Ffamily%3DArchitects%2BDaughter;" vertex="1" parent="FHbYtA2qFltiSmcxUKpC-1">
          <mxGeometry x="100" width="840" height="980" as="geometry" />
        </mxCell>
        <mxCell id="FHbYtA2qFltiSmcxUKpC-32" value="&lt;b&gt;RQF-001&lt;/b&gt;&lt;br&gt;consultar la información de registro de usuario" style="ellipse;whiteSpace=wrap;html=1;sketch=1;curveFitting=1;jiggle=2;fontFamily=Architects Daughter;fontSource=https%3A%2F%2Ffonts.googleapis.com%2Fcss%3Ffamily%3DArchitects%2BDaughter;" vertex="1" parent="FHbYtA2qFltiSmcxUKpC-1">
          <mxGeometry x="167.5" y="181" width="170" height="80" as="geometry" />
        </mxCell>
        <mxCell id="FHbYtA2qFltiSmcxUKpC-33" value="&lt;b style=&quot;border-color: var(--border-color);&quot;&gt;RQF-002&lt;/b&gt;&lt;br style=&quot;border-color: var(--border-color);&quot;&gt;consultar la información de núcleo familiar" style="ellipse;whiteSpace=wrap;html=1;sketch=1;curveFitting=1;jiggle=2;fontFamily=Architects Daughter;fontSource=https%3A%2F%2Ffonts.googleapis.com%2Fcss%3Ffamily%3DArchitects%2BDaughter;" vertex="1" parent="FHbYtA2qFltiSmcxUKpC-1">
          <mxGeometry x="735" y="131" width="170" height="80" as="geometry" />
        </mxCell>
        <mxCell id="FHbYtA2qFltiSmcxUKpC-34" value="&lt;b style=&quot;border-color: var(--border-color);&quot;&gt;RQF-003&lt;/b&gt;&lt;br style=&quot;border-color: var(--border-color);&quot;&gt;consultar la información de la organización base" style="ellipse;whiteSpace=wrap;html=1;sketch=1;curveFitting=1;jiggle=2;fontFamily=Architects Daughter;fontSource=https%3A%2F%2Ffonts.googleapis.com%2Fcss%3Ffamily%3DArchitects%2BDaughter;" vertex="1" parent="FHbYtA2qFltiSmcxUKpC-1">
          <mxGeometry x="735" y="256" width="170" height="80" as="geometry" />
        </mxCell>
        <mxCell id="FHbYtA2qFltiSmcxUKpC-35" value="&lt;b&gt;RQF-004&lt;/b&gt;&lt;br&gt;consultar información sobre las ayudas disponibles&lt;span style=&quot;color: rgb(31, 35, 40); font-size: 16px; text-align: start; background-color: rgb(255, 255, 255);&quot;&gt;&amp;nbsp;&lt;/span&gt;" style="ellipse;whiteSpace=wrap;html=1;sketch=1;curveFitting=1;jiggle=2;fontFamily=Architects Daughter;fontSource=https%3A%2F%2Ffonts.googleapis.com%2Fcss%3Ffamily%3DArchitects%2BDaughter;" vertex="1" parent="FHbYtA2qFltiSmcxUKpC-1">
          <mxGeometry x="737.5" y="371" width="165" height="80" as="geometry" />
        </mxCell>
        <mxCell id="FHbYtA2qFltiSmcxUKpC-36" value="&lt;div&gt;&lt;b&gt;RQF-005&lt;/b&gt;&lt;/div&gt;consultar información sobre aportes" style="ellipse;whiteSpace=wrap;html=1;sketch=1;curveFitting=1;jiggle=2;fontFamily=Architects Daughter;fontSource=https%3A%2F%2Ffonts.googleapis.com%2Fcss%3Ffamily%3DArchitects%2BDaughter;" vertex="1" parent="FHbYtA2qFltiSmcxUKpC-1">
          <mxGeometry x="740" y="661" width="165" height="80" as="geometry" />
        </mxCell>
        <mxCell id="FHbYtA2qFltiSmcxUKpC-37" value="&lt;div style=&quot;border-color: var(--border-color);&quot;&gt;&lt;b style=&quot;border-color: var(--border-color);&quot;&gt;RQF-006&lt;/b&gt;&lt;/div&gt;descargar certificado de aportes&lt;span style=&quot;color: rgb(31, 35, 40); font-size: 16px; text-align: start; background-color: rgb(255, 255, 255);&quot;&gt;&amp;nbsp;&lt;/span&gt;" style="ellipse;whiteSpace=wrap;html=1;sketch=1;curveFitting=1;jiggle=2;fontFamily=Architects Daughter;fontSource=https%3A%2F%2Ffonts.googleapis.com%2Fcss%3Ffamily%3DArchitects%2BDaughter;" vertex="1" parent="FHbYtA2qFltiSmcxUKpC-1">
          <mxGeometry x="740" y="821" width="165" height="80" as="geometry" />
        </mxCell>
        <mxCell id="FHbYtA2qFltiSmcxUKpC-38" value="&lt;div style=&quot;border-color: var(--border-color);&quot;&gt;&lt;b style=&quot;border-color: var(--border-color);&quot;&gt;RQF-007&lt;/b&gt;&lt;/div&gt;gestionar la información de los territorios" style="ellipse;whiteSpace=wrap;html=1;sketch=1;curveFitting=1;jiggle=2;fontFamily=Architects Daughter;fontSource=https%3A%2F%2Ffonts.googleapis.com%2Fcss%3Ffamily%3DArchitects%2BDaughter;" vertex="1" parent="FHbYtA2qFltiSmcxUKpC-1">
          <mxGeometry x="380" y="821" width="185" height="80" as="geometry" />
        </mxCell>
        <mxCell id="FHbYtA2qFltiSmcxUKpC-39" value="&lt;div style=&quot;border-color: var(--border-color);&quot;&gt;&lt;b style=&quot;border-color: var(--border-color);&quot;&gt;RQF-008&lt;/b&gt;&lt;/div&gt;gestionar la información de los beneficiarios" style="ellipse;whiteSpace=wrap;html=1;sketch=1;curveFitting=1;jiggle=2;fontFamily=Architects Daughter;fontSource=https%3A%2F%2Ffonts.googleapis.com%2Fcss%3Ffamily%3DArchitects%2BDaughter;" vertex="1" parent="FHbYtA2qFltiSmcxUKpC-1">
          <mxGeometry x="160" y="411" width="185" height="80" as="geometry" />
        </mxCell>
        <mxCell id="FHbYtA2qFltiSmcxUKpC-40" value="&lt;div style=&quot;border-color: var(--border-color);&quot;&gt;&lt;b style=&quot;border-color: var(--border-color);&quot;&gt;RQF-009&lt;/b&gt;&lt;/div&gt;gestionar la información de las organizaciones" style="ellipse;whiteSpace=wrap;html=1;sketch=1;curveFitting=1;jiggle=2;fontFamily=Architects Daughter;fontSource=https%3A%2F%2Ffonts.googleapis.com%2Fcss%3Ffamily%3DArchitects%2BDaughter;" vertex="1" parent="FHbYtA2qFltiSmcxUKpC-1">
          <mxGeometry x="605" y="521" width="185" height="80" as="geometry" />
        </mxCell>
        <mxCell id="FHbYtA2qFltiSmcxUKpC-41" value="&lt;div style=&quot;border-color: var(--border-color);&quot;&gt;&lt;b style=&quot;border-color: var(--border-color);&quot;&gt;RQF-010&lt;/b&gt;&lt;/div&gt;gestionar la información de los voluntarios" style="ellipse;whiteSpace=wrap;html=1;sketch=1;curveFitting=1;jiggle=2;fontFamily=Architects Daughter;fontSource=https%3A%2F%2Ffonts.googleapis.com%2Fcss%3Ffamily%3DArchitects%2BDaughter;" vertex="1" parent="FHbYtA2qFltiSmcxUKpC-1">
          <mxGeometry x="380" y="471" width="185" height="80" as="geometry" />
        </mxCell>
        <mxCell id="FHbYtA2qFltiSmcxUKpC-42" value="&lt;div style=&quot;border-color: var(--border-color);&quot;&gt;&lt;b style=&quot;border-color: var(--border-color);&quot;&gt;RQF-011&lt;/b&gt;&lt;/div&gt;gestionar los diferentes aportes" style="ellipse;whiteSpace=wrap;html=1;sketch=1;curveFitting=1;jiggle=2;fontFamily=Architects Daughter;fontSource=https%3A%2F%2Ffonts.googleapis.com%2Fcss%3Ffamily%3DArchitects%2BDaughter;" vertex="1" parent="FHbYtA2qFltiSmcxUKpC-1">
          <mxGeometry x="380" y="661" width="185" height="80" as="geometry" />
        </mxCell>
        <UserObject label="Beneficiario&lt;br&gt;&lt;b&gt;ACT-001&lt;/b&gt;" link="https://github.com/yeiferamunozt/ProActHelp/blob/design/Arquitectura%20de%20software/Requerimientos/Identificacion.md#act-001" linkTarget="_blank" id="FHbYtA2qFltiSmcxUKpC-43">
          <mxCell style="shape=umlActor;verticalLabelPosition=bottom;verticalAlign=top;html=1;outlineConnect=0;sketch=1;curveFitting=1;jiggle=2;fontFamily=Architects Daughter;fontSource=https%3A%2F%2Ffonts.googleapis.com%2Fcss%3Ffamily%3DArchitects%2BDaughter;" vertex="1" parent="FHbYtA2qFltiSmcxUKpC-1">
            <mxGeometry x="1030" y="266" width="30" height="60" as="geometry" />
          </mxCell>
        </UserObject>
        <UserObject label="Organización de base&lt;br&gt;&lt;b&gt;ACT-004&lt;/b&gt;" linkTarget="_blank" id="FHbYtA2qFltiSmcxUKpC-44">
          <mxCell style="shape=umlActor;verticalLabelPosition=bottom;verticalAlign=top;html=1;outlineConnect=0;sketch=1;curveFitting=1;jiggle=2;fontFamily=Architects Daughter;fontSource=https%3A%2F%2Ffonts.googleapis.com%2Fcss%3Ffamily%3DArchitects%2BDaughter;" vertex="1" parent="FHbYtA2qFltiSmcxUKpC-1">
            <mxGeometry x="1030" y="481" width="30" height="60" as="geometry" />
          </mxCell>
        </UserObject>
        <UserObject label="Voluntario&lt;br&gt;&lt;b&gt;ACT-002&lt;/b&gt;" link="https://github.com/yeiferamunozt/ProActHelp/blob/design/Arquitectura%20de%20software/Requerimientos/Identificacion.md#act-002" linkTarget="_blank" id="FHbYtA2qFltiSmcxUKpC-45">
          <mxCell style="shape=umlActor;verticalLabelPosition=bottom;verticalAlign=top;html=1;outlineConnect=0;sketch=1;curveFitting=1;jiggle=2;fontFamily=Architects Daughter;fontSource=https%3A%2F%2Ffonts.googleapis.com%2Fcss%3Ffamily%3DArchitects%2BDaughter;" vertex="1" parent="FHbYtA2qFltiSmcxUKpC-1">
            <mxGeometry x="1030" y="671" width="30" height="60" as="geometry" />
          </mxCell>
        </UserObject>
        <UserObject label="Organización cooperante&lt;br&gt;&lt;b&gt;ACT-003&lt;/b&gt;" link="https://github.com/yeiferamunozt/ProActHelp/blob/design/Arquitectura%20de%20software/Requerimientos/Identificacion.md#act-003" linkTarget="_blank" id="FHbYtA2qFltiSmcxUKpC-46">
          <mxCell style="shape=umlActor;verticalLabelPosition=bottom;verticalAlign=top;html=1;outlineConnect=0;sketch=1;curveFitting=1;jiggle=2;fontFamily=Architects Daughter;fontSource=https%3A%2F%2Ffonts.googleapis.com%2Fcss%3Ffamily%3DArchitects%2BDaughter;" vertex="1" parent="FHbYtA2qFltiSmcxUKpC-1">
            <mxGeometry x="1030" y="831" width="30" height="60" as="geometry" />
          </mxCell>
        </UserObject>
        <UserObject label="Usuario&lt;br&gt;&lt;b&gt;ACT-008&lt;/b&gt;" link="https://github.com/yeiferamunozt/ProActHelp/blob/design/Arquitectura%20de%20software/Requerimientos/Identificacion.md#act-008" linkTarget="_blank" id="FHbYtA2qFltiSmcxUKpC-47">
          <mxCell style="shape=umlActor;verticalLabelPosition=bottom;verticalAlign=top;html=1;outlineConnect=0;sketch=1;curveFitting=1;jiggle=2;fontFamily=Architects Daughter;fontSource=https%3A%2F%2Ffonts.googleapis.com%2Fcss%3Ffamily%3DArchitects%2BDaughter;" vertex="1" parent="FHbYtA2qFltiSmcxUKpC-1">
            <mxGeometry x="-20" y="191" width="30" height="60" as="geometry" />
          </mxCell>
        </UserObject>
        <mxCell id="FHbYtA2qFltiSmcxUKpC-48" value="" style="endArrow=none;html=1;rounded=0;sketch=1;curveFitting=1;jiggle=2;fontFamily=Architects Daughter;fontSource=https%3A%2F%2Ffonts.googleapis.com%2Fcss%3Ffamily%3DArchitects%2BDaughter;" edge="1" parent="FHbYtA2qFltiSmcxUKpC-1" source="FHbYtA2qFltiSmcxUKpC-47" target="FHbYtA2qFltiSmcxUKpC-32">
          <mxGeometry width="50" height="50" relative="1" as="geometry">
            <mxPoint x="100" y="311" as="sourcePoint" />
            <mxPoint x="150" y="261" as="targetPoint" />
          </mxGeometry>
        </mxCell>
        <mxCell id="FHbYtA2qFltiSmcxUKpC-49" value="" style="endArrow=none;html=1;rounded=0;dashed=1;sketch=1;curveFitting=1;jiggle=2;fontFamily=Architects Daughter;fontSource=https%3A%2F%2Ffonts.googleapis.com%2Fcss%3Ffamily%3DArchitects%2BDaughter;" edge="1" parent="FHbYtA2qFltiSmcxUKpC-1" source="FHbYtA2qFltiSmcxUKpC-43" target="FHbYtA2qFltiSmcxUKpC-33">
          <mxGeometry width="50" height="50" relative="1" as="geometry">
            <mxPoint x="30" y="180" as="sourcePoint" />
            <mxPoint x="178" y="174" as="targetPoint" />
          </mxGeometry>
        </mxCell>
        <mxCell id="FHbYtA2qFltiSmcxUKpC-50" value="" style="endArrow=none;html=1;rounded=0;dashed=1;sketch=1;curveFitting=1;jiggle=2;fontFamily=Architects Daughter;fontSource=https%3A%2F%2Ffonts.googleapis.com%2Fcss%3Ffamily%3DArchitects%2BDaughter;" edge="1" parent="FHbYtA2qFltiSmcxUKpC-1" source="FHbYtA2qFltiSmcxUKpC-43" target="FHbYtA2qFltiSmcxUKpC-34">
          <mxGeometry width="50" height="50" relative="1" as="geometry">
            <mxPoint x="1130" y="207" as="sourcePoint" />
            <mxPoint x="900" y="150" as="targetPoint" />
          </mxGeometry>
        </mxCell>
        <mxCell id="FHbYtA2qFltiSmcxUKpC-51" value="" style="endArrow=none;html=1;rounded=0;sketch=1;curveFitting=1;jiggle=2;fontFamily=Architects Daughter;fontSource=https%3A%2F%2Ffonts.googleapis.com%2Fcss%3Ffamily%3DArchitects%2BDaughter;" edge="1" parent="FHbYtA2qFltiSmcxUKpC-1" source="FHbYtA2qFltiSmcxUKpC-35" target="FHbYtA2qFltiSmcxUKpC-43">
          <mxGeometry width="50" height="50" relative="1" as="geometry">
            <mxPoint x="30" y="180" as="sourcePoint" />
            <mxPoint x="178" y="174" as="targetPoint" />
          </mxGeometry>
        </mxCell>
        <mxCell id="FHbYtA2qFltiSmcxUKpC-52" value="" style="endArrow=none;html=1;rounded=0;sketch=1;curveFitting=1;jiggle=2;fontFamily=Architects Daughter;fontSource=https%3A%2F%2Ffonts.googleapis.com%2Fcss%3Ffamily%3DArchitects%2BDaughter;" edge="1" parent="FHbYtA2qFltiSmcxUKpC-1" source="FHbYtA2qFltiSmcxUKpC-35" target="FHbYtA2qFltiSmcxUKpC-44">
          <mxGeometry width="50" height="50" relative="1" as="geometry">
            <mxPoint x="896" y="395" as="sourcePoint" />
            <mxPoint x="1140" y="297" as="targetPoint" />
          </mxGeometry>
        </mxCell>
        <mxCell id="FHbYtA2qFltiSmcxUKpC-53" value="" style="endArrow=none;html=1;rounded=0;sketch=1;curveFitting=1;jiggle=2;fontFamily=Architects Daughter;fontSource=https%3A%2F%2Ffonts.googleapis.com%2Fcss%3Ffamily%3DArchitects%2BDaughter;" edge="1" parent="FHbYtA2qFltiSmcxUKpC-1" source="FHbYtA2qFltiSmcxUKpC-36" target="FHbYtA2qFltiSmcxUKpC-45">
          <mxGeometry width="50" height="50" relative="1" as="geometry">
            <mxPoint x="896" y="447" as="sourcePoint" />
            <mxPoint x="1140" y="545" as="targetPoint" />
          </mxGeometry>
        </mxCell>
        <mxCell id="FHbYtA2qFltiSmcxUKpC-54" value="" style="endArrow=none;html=1;rounded=0;sketch=1;curveFitting=1;jiggle=2;fontFamily=Architects Daughter;fontSource=https%3A%2F%2Ffonts.googleapis.com%2Fcss%3Ffamily%3DArchitects%2BDaughter;" edge="1" parent="FHbYtA2qFltiSmcxUKpC-1" source="FHbYtA2qFltiSmcxUKpC-36" target="FHbYtA2qFltiSmcxUKpC-46">
          <mxGeometry width="50" height="50" relative="1" as="geometry">
            <mxPoint x="894" y="764" as="sourcePoint" />
            <mxPoint x="1030" y="881" as="targetPoint" />
          </mxGeometry>
        </mxCell>
        <mxCell id="FHbYtA2qFltiSmcxUKpC-55" value="" style="endArrow=none;html=1;rounded=0;sketch=1;curveFitting=1;jiggle=2;fontFamily=Architects Daughter;fontSource=https%3A%2F%2Ffonts.googleapis.com%2Fcss%3Ffamily%3DArchitects%2BDaughter;" edge="1" parent="FHbYtA2qFltiSmcxUKpC-1" source="FHbYtA2qFltiSmcxUKpC-37" target="FHbYtA2qFltiSmcxUKpC-45">
          <mxGeometry width="50" height="50" relative="1" as="geometry">
            <mxPoint x="619" y="770" as="sourcePoint" />
            <mxPoint x="1140" y="693" as="targetPoint" />
          </mxGeometry>
        </mxCell>
        <mxCell id="FHbYtA2qFltiSmcxUKpC-56" value="" style="endArrow=none;html=1;rounded=0;sketch=1;curveFitting=1;jiggle=2;fontFamily=Architects Daughter;fontSource=https%3A%2F%2Ffonts.googleapis.com%2Fcss%3Ffamily%3DArchitects%2BDaughter;" edge="1" parent="FHbYtA2qFltiSmcxUKpC-1" source="FHbYtA2qFltiSmcxUKpC-37" target="FHbYtA2qFltiSmcxUKpC-46">
          <mxGeometry width="50" height="50" relative="1" as="geometry">
            <mxPoint x="935" y="768" as="sourcePoint" />
            <mxPoint x="1140" y="696" as="targetPoint" />
          </mxGeometry>
        </mxCell>
        <UserObject label="Administrador de territorio&lt;br&gt;&lt;b&gt;ACT-005&lt;/b&gt;" link="https://github.com/yeiferamunozt/ProActHelp/blob/design/Arquitectura%20de%20software/Requerimientos/Identificacion.md#act-005" linkTarget="_blank" id="FHbYtA2qFltiSmcxUKpC-57">
          <mxCell style="shape=umlActor;verticalLabelPosition=bottom;verticalAlign=top;html=1;outlineConnect=0;sketch=1;curveFitting=1;jiggle=2;fontFamily=Architects Daughter;fontSource=https%3A%2F%2Ffonts.googleapis.com%2Fcss%3Ffamily%3DArchitects%2BDaughter;" vertex="1" parent="FHbYtA2qFltiSmcxUKpC-1">
            <mxGeometry x="-20" y="630" width="30" height="60" as="geometry" />
          </mxCell>
        </UserObject>
        <mxCell id="FHbYtA2qFltiSmcxUKpC-58" value="" style="endArrow=none;html=1;rounded=0;sketch=1;curveFitting=1;jiggle=2;fontFamily=Architects Daughter;fontSource=https%3A%2F%2Ffonts.googleapis.com%2Fcss%3Ffamily%3DArchitects%2BDaughter;" edge="1" parent="FHbYtA2qFltiSmcxUKpC-1" source="FHbYtA2qFltiSmcxUKpC-57" target="FHbYtA2qFltiSmcxUKpC-38">
          <mxGeometry width="50" height="50" relative="1" as="geometry">
            <mxPoint x="30" y="240" as="sourcePoint" />
            <mxPoint x="178" y="234" as="targetPoint" />
          </mxGeometry>
        </mxCell>
        <mxCell id="FHbYtA2qFltiSmcxUKpC-59" value="" style="endArrow=none;html=1;rounded=0;sketch=1;curveFitting=1;jiggle=2;fontFamily=Architects Daughter;fontSource=https%3A%2F%2Ffonts.googleapis.com%2Fcss%3Ffamily%3DArchitects%2BDaughter;" edge="1" parent="FHbYtA2qFltiSmcxUKpC-1" source="FHbYtA2qFltiSmcxUKpC-57" target="FHbYtA2qFltiSmcxUKpC-39">
          <mxGeometry width="50" height="50" relative="1" as="geometry">
            <mxPoint x="30" y="609" as="sourcePoint" />
            <mxPoint x="219" y="456" as="targetPoint" />
          </mxGeometry>
        </mxCell>
        <mxCell id="FHbYtA2qFltiSmcxUKpC-60" value="" style="endArrow=none;html=1;rounded=0;sketch=1;curveFitting=1;jiggle=2;fontFamily=Architects Daughter;fontSource=https%3A%2F%2Ffonts.googleapis.com%2Fcss%3Ffamily%3DArchitects%2BDaughter;" edge="1" parent="FHbYtA2qFltiSmcxUKpC-1" source="FHbYtA2qFltiSmcxUKpC-57" target="FHbYtA2qFltiSmcxUKpC-40">
          <mxGeometry width="50" height="50" relative="1" as="geometry">
            <mxPoint x="30" y="622" as="sourcePoint" />
            <mxPoint x="164" y="633" as="targetPoint" />
          </mxGeometry>
        </mxCell>
        <mxCell id="FHbYtA2qFltiSmcxUKpC-61" value="" style="endArrow=none;html=1;rounded=0;sketch=1;curveFitting=1;jiggle=2;fontFamily=Architects Daughter;fontSource=https%3A%2F%2Ffonts.googleapis.com%2Fcss%3Ffamily%3DArchitects%2BDaughter;" edge="1" parent="FHbYtA2qFltiSmcxUKpC-1" source="FHbYtA2qFltiSmcxUKpC-57" target="FHbYtA2qFltiSmcxUKpC-41">
          <mxGeometry width="50" height="50" relative="1" as="geometry">
            <mxPoint x="30" y="624" as="sourcePoint" />
            <mxPoint x="186" y="656" as="targetPoint" />
          </mxGeometry>
        </mxCell>
        <mxCell id="FHbYtA2qFltiSmcxUKpC-62" value="" style="endArrow=none;html=1;rounded=0;sketch=1;curveFitting=1;jiggle=2;fontFamily=Architects Daughter;fontSource=https%3A%2F%2Ffonts.googleapis.com%2Fcss%3Ffamily%3DArchitects%2BDaughter;" edge="1" parent="FHbYtA2qFltiSmcxUKpC-1" source="FHbYtA2qFltiSmcxUKpC-57" target="FHbYtA2qFltiSmcxUKpC-42">
          <mxGeometry width="50" height="50" relative="1" as="geometry">
            <mxPoint x="30" y="631" as="sourcePoint" />
            <mxPoint x="211" y="748" as="targetPoint" />
          </mxGeometry>
        </mxCell>
        <mxCell id="FHbYtA2qFltiSmcxUKpC-63" value="&amp;lt;Extiende&amp;gt;" style="endArrow=open;endSize=12;dashed=1;html=1;rounded=0;sketch=1;curveFitting=1;jiggle=2;fontFamily=Architects Daughter;fontSource=https%3A%2F%2Ffonts.googleapis.com%2Fcss%3Ffamily%3DArchitects%2BDaughter;" edge="1" parent="FHbYtA2qFltiSmcxUKpC-1" source="FHbYtA2qFltiSmcxUKpC-33" target="FHbYtA2qFltiSmcxUKpC-32">
          <mxGeometry width="160" relative="1" as="geometry">
            <mxPoint x="440" y="541" as="sourcePoint" />
            <mxPoint x="600" y="541" as="targetPoint" />
          </mxGeometry>
        </mxCell>
        <mxCell id="FHbYtA2qFltiSmcxUKpC-64" value="&amp;lt;Extiende&amp;gt;" style="endArrow=open;endSize=12;dashed=1;html=1;rounded=0;sketch=1;curveFitting=1;jiggle=2;fontFamily=Architects Daughter;fontSource=https%3A%2F%2Ffonts.googleapis.com%2Fcss%3Ffamily%3DArchitects%2BDaughter;" edge="1" parent="FHbYtA2qFltiSmcxUKpC-1" source="FHbYtA2qFltiSmcxUKpC-34" target="FHbYtA2qFltiSmcxUKpC-32">
          <mxGeometry width="160" relative="1" as="geometry">
            <mxPoint x="741" y="197" as="sourcePoint" />
            <mxPoint x="347" y="225" as="targetPoint" />
          </mxGeometry>
        </mxCell>
        <mxCell id="FHbYtA2qFltiSmcxUKpC-65" value="&amp;lt;Extiende&amp;gt;" style="endArrow=open;endSize=12;dashed=1;html=1;rounded=0;sketch=1;curveFitting=1;jiggle=2;fontFamily=Architects Daughter;fontSource=https%3A%2F%2Ffonts.googleapis.com%2Fcss%3Ffamily%3DArchitects%2BDaughter;" edge="1" parent="FHbYtA2qFltiSmcxUKpC-1" source="FHbYtA2qFltiSmcxUKpC-35" target="FHbYtA2qFltiSmcxUKpC-32">
          <mxGeometry width="160" relative="1" as="geometry">
            <mxPoint x="743" y="295" as="sourcePoint" />
            <mxPoint x="344" y="242" as="targetPoint" />
          </mxGeometry>
        </mxCell>
        <mxCell id="FHbYtA2qFltiSmcxUKpC-66" value="&amp;lt;Incluye&amp;gt;" style="endArrow=open;endSize=12;dashed=1;html=1;rounded=0;sketch=1;curveFitting=1;jiggle=2;fontFamily=Architects Daughter;fontSource=https%3A%2F%2Ffonts.googleapis.com%2Fcss%3Ffamily%3DArchitects%2BDaughter;" edge="1" parent="FHbYtA2qFltiSmcxUKpC-1" source="FHbYtA2qFltiSmcxUKpC-36" target="FHbYtA2qFltiSmcxUKpC-37">
          <mxGeometry x="0.0068" width="160" relative="1" as="geometry">
            <mxPoint x="764" y="398" as="sourcePoint" />
            <mxPoint x="332" y="254" as="targetPoint" />
            <mxPoint as="offset" />
          </mxGeometry>
        </mxCell>
        <mxCell id="FHbYtA2qFltiSmcxUKpC-67" value="&amp;lt;Incluye&amp;gt;" style="endArrow=open;endSize=12;dashed=1;html=1;rounded=0;sketch=1;curveFitting=1;jiggle=2;fontFamily=Architects Daughter;fontSource=https%3A%2F%2Ffonts.googleapis.com%2Fcss%3Ffamily%3DArchitects%2BDaughter;" edge="1" parent="FHbYtA2qFltiSmcxUKpC-1" source="FHbYtA2qFltiSmcxUKpC-42" target="FHbYtA2qFltiSmcxUKpC-36">
          <mxGeometry x="0.0068" width="160" relative="1" as="geometry">
            <mxPoint x="833" y="761" as="sourcePoint" />
            <mxPoint x="833" y="831" as="targetPoint" />
            <mxPoint as="offset" />
          </mxGeometry>
        </mxCell>
        <mxCell id="FHbYtA2qFltiSmcxUKpC-68" value="&amp;lt;Extiende&amp;gt;" style="endArrow=open;endSize=12;dashed=1;html=1;rounded=0;sketch=1;curveFitting=1;jiggle=2;fontFamily=Architects Daughter;fontSource=https%3A%2F%2Ffonts.googleapis.com%2Fcss%3Ffamily%3DArchitects%2BDaughter;" edge="1" parent="FHbYtA2qFltiSmcxUKpC-1" source="FHbYtA2qFltiSmcxUKpC-39" target="FHbYtA2qFltiSmcxUKpC-32">
          <mxGeometry width="160" relative="1" as="geometry">
            <mxPoint x="764" y="398" as="sourcePoint" />
            <mxPoint x="332" y="254" as="targetPoint" />
          </mxGeometry>
        </mxCell>
        <mxCell id="FHbYtA2qFltiSmcxUKpC-69" value="&amp;lt;Extiende&amp;gt;" style="endArrow=open;endSize=12;dashed=1;html=1;rounded=0;sketch=1;curveFitting=1;jiggle=2;fontFamily=Architects Daughter;fontSource=https%3A%2F%2Ffonts.googleapis.com%2Fcss%3Ffamily%3DArchitects%2BDaughter;" edge="1" parent="FHbYtA2qFltiSmcxUKpC-1" source="FHbYtA2qFltiSmcxUKpC-41" target="FHbYtA2qFltiSmcxUKpC-32">
          <mxGeometry width="160" relative="1" as="geometry">
            <mxPoint x="246" y="421" as="sourcePoint" />
            <mxPoint x="259" y="271" as="targetPoint" />
          </mxGeometry>
        </mxCell>
        <mxCell id="FHbYtA2qFltiSmcxUKpC-70" value="&amp;lt;Extiende&amp;gt;" style="endArrow=open;endSize=12;dashed=1;html=1;rounded=0;sketch=1;curveFitting=1;jiggle=2;fontFamily=Architects Daughter;fontSource=https%3A%2F%2Ffonts.googleapis.com%2Fcss%3Ffamily%3DArchitects%2BDaughter;" edge="1" parent="FHbYtA2qFltiSmcxUKpC-1" source="FHbYtA2qFltiSmcxUKpC-40" target="FHbYtA2qFltiSmcxUKpC-32">
          <mxGeometry width="160" relative="1" as="geometry">
            <mxPoint x="416" y="472" as="sourcePoint" />
            <mxPoint x="287" y="269" as="targetPoint" />
          </mxGeometry>
        </mxCell>
        <mxCell id="dwpFz0tOb7MK09RoMFOc-0" value="" style="group" vertex="1" connectable="0" parent="FHbYtA2qFltiSmcxUKpC-1">
          <mxGeometry x="570" width="370" height="87" as="geometry" />
        </mxCell>
        <mxCell id="dwpFz0tOb7MK09RoMFOc-1" value="" style="rounded=0;whiteSpace=wrap;html=1;sketch=1;hachureGap=4;jiggle=2;curveFitting=1;fontFamily=Architects Daughter;fontSource=https%3A%2F%2Ffonts.googleapis.com%2Fcss%3Ffamily%3DArchitects%2BDaughter;fontSize=20;fillColor=none;strokeColor=none;" vertex="1" parent="dwpFz0tOb7MK09RoMFOc-0">
          <mxGeometry width="370" height="87" as="geometry" />
        </mxCell>
        <UserObject label="" link="data:page/id,iWbtqFWxXVhWIT0iU2Vk" id="dwpFz0tOb7MK09RoMFOc-2">
          <mxCell style="triangle;whiteSpace=wrap;html=1;sketch=1;hachureGap=4;jiggle=2;curveFitting=1;fontFamily=Architects Daughter;fontSource=https%3A%2F%2Ffonts.googleapis.com%2Fcss%3Ffamily%3DArchitects%2BDaughter;fontSize=20;" vertex="1" parent="dwpFz0tOb7MK09RoMFOc-0">
            <mxGeometry x="325" y="20" width="30" height="47" as="geometry" />
          </mxCell>
        </UserObject>
        <UserObject label="" link="data:page/id,vNWMk92_j4dSVM1HQU4E" id="dwpFz0tOb7MK09RoMFOc-3">
          <mxCell style="triangle;whiteSpace=wrap;html=1;sketch=1;hachureGap=4;jiggle=2;curveFitting=1;fontFamily=Architects Daughter;fontSource=https%3A%2F%2Ffonts.googleapis.com%2Fcss%3Ffamily%3DArchitects%2BDaughter;fontSize=20;flipH=1;" vertex="1" parent="dwpFz0tOb7MK09RoMFOc-0">
            <mxGeometry x="248" y="20" width="30" height="47" as="geometry" />
          </mxCell>
        </UserObject>
        <UserObject label="&lt;p style=&quot;line-height: 60%;&quot;&gt;&lt;font style=&quot;font-size: 13px;&quot;&gt;All&lt;br&gt;Views&lt;/font&gt;&lt;/p&gt;" link="data:page/id,whgJcLObAnrZEsQRWRJR" id="dwpFz0tOb7MK09RoMFOc-5">
          <mxCell style="whiteSpace=wrap;html=1;shape=mxgraph.basic.pentagon;sketch=1;hachureGap=4;jiggle=2;curveFitting=1;fontFamily=Architects Daughter;fontSource=https%3A%2F%2Ffonts.googleapis.com%2Fcss%3Ffamily%3DArchitects%2BDaughter;fontSize=20;" vertex="1" parent="dwpFz0tOb7MK09RoMFOc-0">
            <mxGeometry x="20" y="20" width="60" height="47" as="geometry" />
          </mxCell>
        </UserObject>
        <UserObject label="" link="data:page/id,e-DazdNSSwbjZ-o5UTgS" id="0LbDq19ZsVI9BELMc3OX-0">
          <mxCell style="verticalLabelPosition=bottom;verticalAlign=top;html=1;shape=mxgraph.basic.4_point_star_2;dx=0.8;sketch=1;hachureGap=4;jiggle=2;curveFitting=1;fontFamily=Architects Daughter;fontSource=https%3A%2F%2Ffonts.googleapis.com%2Fcss%3Ffamily%3DArchitects%2BDaughter;fontSize=20;" vertex="1" parent="dwpFz0tOb7MK09RoMFOc-0">
            <mxGeometry x="160" y="18.5" width="50" height="50" as="geometry" />
          </mxCell>
        </UserObject>
      </root>
    </mxGraphModel>
  </diagram>
  <diagram name="CU - MOD002" id="iWbtqFWxXVhWIT0iU2Vk">
    <mxGraphModel dx="2498" dy="1297" grid="1" gridSize="10" guides="1" tooltips="1" connect="1" arrows="1" fold="1" page="0" pageScale="1" pageWidth="850" pageHeight="1100" math="0" shadow="0">
      <root>
        <mxCell id="sTYgbjWGwMf5bDXudof6-0" />
        <mxCell id="sTYgbjWGwMf5bDXudof6-1" parent="sTYgbjWGwMf5bDXudof6-0" />
        <mxCell id="sTYgbjWGwMf5bDXudof6-72" value="&lt;b style=&quot;font-size: 25px;&quot;&gt;&lt;font style=&quot;font-size: 25px;&quot;&gt;Casos de uso&lt;br&gt;&lt;/font&gt;&lt;/b&gt;&lt;div style=&quot;font-size: 25px;&quot;&gt;&lt;font style=&quot;font-size: 25px;&quot;&gt;(MOD-002)&lt;i style=&quot;&quot;&gt;&amp;nbsp;-&amp;nbsp;&lt;/i&gt;&lt;i style=&quot;&quot;&gt;Medición de Impacto&lt;/i&gt;&lt;/font&gt;&lt;/div&gt;" style="shape=umlFrame;whiteSpace=wrap;html=1;pointerEvents=0;width=460;height=80;sketch=1;curveFitting=1;jiggle=2;fontFamily=Architects Daughter;fontSource=https%3A%2F%2Ffonts.googleapis.com%2Fcss%3Ffamily%3DArchitects%2BDaughter;" vertex="1" parent="sTYgbjWGwMf5bDXudof6-1">
          <mxGeometry x="140" width="840" height="980" as="geometry" />
        </mxCell>
        <mxCell id="sTYgbjWGwMf5bDXudof6-73" value="&lt;b&gt;RQF-012&lt;/b&gt;&lt;br&gt;gestionar los indicadores de impacto" style="ellipse;whiteSpace=wrap;html=1;sketch=1;curveFitting=1;jiggle=2;fontFamily=Architects Daughter;fontSource=https%3A%2F%2Ffonts.googleapis.com%2Fcss%3Ffamily%3DArchitects%2BDaughter;" vertex="1" parent="sTYgbjWGwMf5bDXudof6-1">
          <mxGeometry x="500" y="740" width="170" height="80" as="geometry" />
        </mxCell>
        <UserObject label="Organización cooperante&lt;br&gt;&lt;b&gt;ACT-003&lt;/b&gt;" link="https://github.com/yeiferamunozt/ProActHelp/blob/design/Arquitectura%20de%20software/Requerimientos/Identificacion.md#act-003" linkTarget="_blank" id="sTYgbjWGwMf5bDXudof6-74">
          <mxCell style="shape=umlActor;verticalLabelPosition=bottom;verticalAlign=top;html=1;outlineConnect=0;sketch=1;curveFitting=1;jiggle=2;fontFamily=Architects Daughter;fontSource=https%3A%2F%2Ffonts.googleapis.com%2Fcss%3Ffamily%3DArchitects%2BDaughter;" vertex="1" parent="sTYgbjWGwMf5bDXudof6-1">
            <mxGeometry x="1080" y="540" width="30" height="60" as="geometry" />
          </mxCell>
        </UserObject>
        <UserObject label="Administrador de territorio&lt;br&gt;&lt;b&gt;ACT-005&lt;/b&gt;" link="https://github.com/yeiferamunozt/ProActHelp/blob/design/Arquitectura%20de%20software/Requerimientos/Identificacion.md#act-005" linkTarget="_blank" id="sTYgbjWGwMf5bDXudof6-75">
          <mxCell style="shape=umlActor;verticalLabelPosition=bottom;verticalAlign=top;html=1;outlineConnect=0;sketch=1;curveFitting=1;jiggle=2;fontFamily=Architects Daughter;fontSource=https%3A%2F%2Ffonts.googleapis.com%2Fcss%3Ffamily%3DArchitects%2BDaughter;" vertex="1" parent="sTYgbjWGwMf5bDXudof6-1">
            <mxGeometry y="710" width="30" height="60" as="geometry" />
          </mxCell>
        </UserObject>
        <mxCell id="sTYgbjWGwMf5bDXudof6-76" value="&lt;b&gt;RQF-013&lt;/b&gt;&lt;br&gt;registrar informacion a los indicadores utilizando formularios" style="ellipse;whiteSpace=wrap;html=1;sketch=1;curveFitting=1;jiggle=2;fontFamily=Architects Daughter;fontSource=https%3A%2F%2Ffonts.googleapis.com%2Fcss%3Ffamily%3DArchitects%2BDaughter;" vertex="1" parent="sTYgbjWGwMf5bDXudof6-1">
          <mxGeometry x="310" y="850" width="170" height="80" as="geometry" />
        </mxCell>
        <mxCell id="sTYgbjWGwMf5bDXudof6-77" value="&lt;b&gt;RQF-014&lt;/b&gt;&lt;br&gt;consultar información sobre los indicadores" style="ellipse;whiteSpace=wrap;html=1;sketch=1;curveFitting=1;jiggle=2;fontFamily=Architects Daughter;fontSource=https%3A%2F%2Ffonts.googleapis.com%2Fcss%3Ffamily%3DArchitects%2BDaughter;" vertex="1" parent="sTYgbjWGwMf5bDXudof6-1">
          <mxGeometry x="463.75" y="110" width="192.5" height="80" as="geometry" />
        </mxCell>
        <mxCell id="sTYgbjWGwMf5bDXudof6-78" value="&lt;b&gt;RQF-015&lt;/b&gt;&lt;br&gt;gestionar diagnósticos y predicciones" style="ellipse;whiteSpace=wrap;html=1;sketch=1;curveFitting=1;jiggle=2;fontFamily=Architects Daughter;fontSource=https%3A%2F%2Ffonts.googleapis.com%2Fcss%3Ffamily%3DArchitects%2BDaughter;" vertex="1" parent="sTYgbjWGwMf5bDXudof6-1">
          <mxGeometry x="475" y="300" width="170" height="80" as="geometry" />
        </mxCell>
        <mxCell id="sTYgbjWGwMf5bDXudof6-79" value="&lt;b&gt;RQF-016&lt;/b&gt;&lt;br&gt;gestionar prescripciones y recomendaciones" style="ellipse;whiteSpace=wrap;html=1;sketch=1;curveFitting=1;jiggle=2;fontFamily=Architects Daughter;fontSource=https%3A%2F%2Ffonts.googleapis.com%2Fcss%3Ffamily%3DArchitects%2BDaughter;" vertex="1" parent="sTYgbjWGwMf5bDXudof6-1">
          <mxGeometry x="475" y="520" width="170" height="80" as="geometry" />
        </mxCell>
        <mxCell id="sTYgbjWGwMf5bDXudof6-80" value="&lt;b&gt;RQF-017&lt;/b&gt;&lt;br&gt;consultar historias de beneficiarios" style="ellipse;whiteSpace=wrap;html=1;sketch=1;curveFitting=1;jiggle=2;fontFamily=Architects Daughter;fontSource=https%3A%2F%2Ffonts.googleapis.com%2Fcss%3Ffamily%3DArchitects%2BDaughter;" vertex="1" parent="sTYgbjWGwMf5bDXudof6-1">
          <mxGeometry x="700" y="630" width="170" height="80" as="geometry" />
        </mxCell>
        <mxCell id="sTYgbjWGwMf5bDXudof6-81" value="" style="endArrow=none;html=1;rounded=0;sketch=1;curveFitting=1;jiggle=2;fontFamily=Architects Daughter;fontSource=https%3A%2F%2Ffonts.googleapis.com%2Fcss%3Ffamily%3DArchitects%2BDaughter;" edge="1" parent="sTYgbjWGwMf5bDXudof6-1" source="sTYgbjWGwMf5bDXudof6-75" target="sTYgbjWGwMf5bDXudof6-73">
          <mxGeometry width="50" height="50" relative="1" as="geometry">
            <mxPoint x="-17" y="310" as="sourcePoint" />
            <mxPoint x="360" y="473" as="targetPoint" />
          </mxGeometry>
        </mxCell>
        <mxCell id="sTYgbjWGwMf5bDXudof6-82" value="" style="endArrow=none;html=1;rounded=0;sketch=1;curveFitting=1;jiggle=2;fontFamily=Architects Daughter;fontSource=https%3A%2F%2Ffonts.googleapis.com%2Fcss%3Ffamily%3DArchitects%2BDaughter;" edge="1" parent="sTYgbjWGwMf5bDXudof6-1" source="sTYgbjWGwMf5bDXudof6-75" target="sTYgbjWGwMf5bDXudof6-76">
          <mxGeometry width="50" height="50" relative="1" as="geometry">
            <mxPoint x="60" y="380" as="sourcePoint" />
            <mxPoint x="255" y="243" as="targetPoint" />
          </mxGeometry>
        </mxCell>
        <UserObject label="Modelo analítico&lt;br&gt;&lt;b&gt;ACT-009&lt;/b&gt;" link="https://github.com/yeiferamunozt/ProActHelp/blob/design/Arquitectura%20de%20software/Requerimientos/Identificacion.md#act-009" linkTarget="_blank" id="sTYgbjWGwMf5bDXudof6-83">
          <mxCell style="shape=umlActor;verticalLabelPosition=bottom;verticalAlign=top;html=1;outlineConnect=0;sketch=1;curveFitting=1;jiggle=2;fontFamily=Architects Daughter;fontSource=https%3A%2F%2Ffonts.googleapis.com%2Fcss%3Ffamily%3DArchitects%2BDaughter;" vertex="1" parent="sTYgbjWGwMf5bDXudof6-1">
            <mxGeometry y="240" width="30" height="60" as="geometry" />
          </mxCell>
        </UserObject>
        <mxCell id="sTYgbjWGwMf5bDXudof6-84" value="" style="endArrow=none;html=1;rounded=0;sketch=1;curveFitting=1;jiggle=2;fontFamily=Architects Daughter;fontSource=https%3A%2F%2Ffonts.googleapis.com%2Fcss%3Ffamily%3DArchitects%2BDaughter;" edge="1" parent="sTYgbjWGwMf5bDXudof6-1" source="sTYgbjWGwMf5bDXudof6-83" target="sTYgbjWGwMf5bDXudof6-77">
          <mxGeometry width="50" height="50" relative="1" as="geometry">
            <mxPoint x="60" y="389" as="sourcePoint" />
            <mxPoint x="219" y="377" as="targetPoint" />
          </mxGeometry>
        </mxCell>
        <mxCell id="sTYgbjWGwMf5bDXudof6-85" value="" style="endArrow=none;html=1;rounded=0;sketch=1;curveFitting=1;jiggle=2;fontFamily=Architects Daughter;fontSource=https%3A%2F%2Ffonts.googleapis.com%2Fcss%3Ffamily%3DArchitects%2BDaughter;" edge="1" parent="sTYgbjWGwMf5bDXudof6-1" source="sTYgbjWGwMf5bDXudof6-75" target="sTYgbjWGwMf5bDXudof6-78">
          <mxGeometry width="50" height="50" relative="1" as="geometry">
            <mxPoint x="60" y="389" as="sourcePoint" />
            <mxPoint x="219" y="377" as="targetPoint" />
          </mxGeometry>
        </mxCell>
        <mxCell id="sTYgbjWGwMf5bDXudof6-86" value="" style="endArrow=none;html=1;rounded=0;sketch=1;curveFitting=1;jiggle=2;fontFamily=Architects Daughter;fontSource=https%3A%2F%2Ffonts.googleapis.com%2Fcss%3Ffamily%3DArchitects%2BDaughter;" edge="1" parent="sTYgbjWGwMf5bDXudof6-1" source="sTYgbjWGwMf5bDXudof6-83" target="sTYgbjWGwMf5bDXudof6-78">
          <mxGeometry width="50" height="50" relative="1" as="geometry">
            <mxPoint x="60" y="393" as="sourcePoint" />
            <mxPoint x="436" y="465" as="targetPoint" />
          </mxGeometry>
        </mxCell>
        <mxCell id="sTYgbjWGwMf5bDXudof6-87" value="" style="endArrow=none;html=1;rounded=0;sketch=1;curveFitting=1;jiggle=2;fontFamily=Architects Daughter;fontSource=https%3A%2F%2Ffonts.googleapis.com%2Fcss%3Ffamily%3DArchitects%2BDaughter;" edge="1" parent="sTYgbjWGwMf5bDXudof6-1" source="sTYgbjWGwMf5bDXudof6-74" target="sTYgbjWGwMf5bDXudof6-78">
          <mxGeometry width="50" height="50" relative="1" as="geometry">
            <mxPoint x="1020" y="460" as="sourcePoint" />
            <mxPoint x="440" y="499" as="targetPoint" />
          </mxGeometry>
        </mxCell>
        <mxCell id="sTYgbjWGwMf5bDXudof6-88" value="" style="endArrow=none;html=1;rounded=0;sketch=1;curveFitting=1;jiggle=2;fontFamily=Architects Daughter;fontSource=https%3A%2F%2Ffonts.googleapis.com%2Fcss%3Ffamily%3DArchitects%2BDaughter;" edge="1" parent="sTYgbjWGwMf5bDXudof6-1" source="sTYgbjWGwMf5bDXudof6-75" target="sTYgbjWGwMf5bDXudof6-79">
          <mxGeometry width="50" height="50" relative="1" as="geometry">
            <mxPoint x="60" y="393" as="sourcePoint" />
            <mxPoint x="436" y="465" as="targetPoint" />
          </mxGeometry>
        </mxCell>
        <mxCell id="sTYgbjWGwMf5bDXudof6-89" value="" style="endArrow=none;html=1;rounded=0;sketch=1;curveFitting=1;jiggle=2;fontFamily=Architects Daughter;fontSource=https%3A%2F%2Ffonts.googleapis.com%2Fcss%3Ffamily%3DArchitects%2BDaughter;" edge="1" parent="sTYgbjWGwMf5bDXudof6-1" source="sTYgbjWGwMf5bDXudof6-83" target="sTYgbjWGwMf5bDXudof6-79">
          <mxGeometry width="50" height="50" relative="1" as="geometry">
            <mxPoint x="60" y="396" as="sourcePoint" />
            <mxPoint x="518" y="565" as="targetPoint" />
          </mxGeometry>
        </mxCell>
        <mxCell id="sTYgbjWGwMf5bDXudof6-90" value="" style="endArrow=none;html=1;rounded=0;sketch=1;curveFitting=1;jiggle=2;fontFamily=Architects Daughter;fontSource=https%3A%2F%2Ffonts.googleapis.com%2Fcss%3Ffamily%3DArchitects%2BDaughter;" edge="1" parent="sTYgbjWGwMf5bDXudof6-1" source="sTYgbjWGwMf5bDXudof6-74" target="sTYgbjWGwMf5bDXudof6-79">
          <mxGeometry width="50" height="50" relative="1" as="geometry">
            <mxPoint x="60" y="600" as="sourcePoint" />
            <mxPoint x="500" y="592" as="targetPoint" />
          </mxGeometry>
        </mxCell>
        <mxCell id="sTYgbjWGwMf5bDXudof6-91" value="" style="endArrow=none;html=1;rounded=0;sketch=1;curveFitting=1;jiggle=2;fontFamily=Architects Daughter;fontSource=https%3A%2F%2Ffonts.googleapis.com%2Fcss%3Ffamily%3DArchitects%2BDaughter;" edge="1" parent="sTYgbjWGwMf5bDXudof6-1" source="sTYgbjWGwMf5bDXudof6-75" target="sTYgbjWGwMf5bDXudof6-80">
          <mxGeometry width="50" height="50" relative="1" as="geometry">
            <mxPoint x="60" y="380" as="sourcePoint" />
            <mxPoint x="255" y="243" as="targetPoint" />
          </mxGeometry>
        </mxCell>
        <mxCell id="sTYgbjWGwMf5bDXudof6-92" value="" style="endArrow=none;html=1;rounded=0;sketch=1;curveFitting=1;jiggle=2;fontFamily=Architects Daughter;fontSource=https%3A%2F%2Ffonts.googleapis.com%2Fcss%3Ffamily%3DArchitects%2BDaughter;" edge="1" parent="sTYgbjWGwMf5bDXudof6-1" source="sTYgbjWGwMf5bDXudof6-80" target="sTYgbjWGwMf5bDXudof6-74">
          <mxGeometry width="50" height="50" relative="1" as="geometry">
            <mxPoint x="60" y="387" as="sourcePoint" />
            <mxPoint x="466" y="310" as="targetPoint" />
          </mxGeometry>
        </mxCell>
        <mxCell id="sTYgbjWGwMf5bDXudof6-93" value="&amp;lt;Extiende&amp;gt;" style="endArrow=open;endSize=12;dashed=1;html=1;rounded=0;sketch=1;curveFitting=1;jiggle=2;fontFamily=Architects Daughter;fontSource=https%3A%2F%2Ffonts.googleapis.com%2Fcss%3Ffamily%3DArchitects%2BDaughter;" edge="1" parent="sTYgbjWGwMf5bDXudof6-1" source="sTYgbjWGwMf5bDXudof6-76" target="sTYgbjWGwMf5bDXudof6-73">
          <mxGeometry width="160" relative="1" as="geometry">
            <mxPoint x="405" y="40" as="sourcePoint" />
            <mxPoint x="242" y="-174" as="targetPoint" />
          </mxGeometry>
        </mxCell>
        <mxCell id="sTYgbjWGwMf5bDXudof6-94" value="&amp;lt;Requiere&amp;gt;" style="endArrow=open;endSize=12;dashed=1;html=1;rounded=0;sketch=1;curveFitting=1;jiggle=2;fontFamily=Architects Daughter;fontSource=https%3A%2F%2Ffonts.googleapis.com%2Fcss%3Ffamily%3DArchitects%2BDaughter;" edge="1" parent="sTYgbjWGwMf5bDXudof6-1" source="sTYgbjWGwMf5bDXudof6-79" target="sTYgbjWGwMf5bDXudof6-78">
          <mxGeometry x="0.0068" width="160" relative="1" as="geometry">
            <mxPoint x="603.75" y="515" as="sourcePoint" />
            <mxPoint x="603.75" y="595" as="targetPoint" />
            <mxPoint as="offset" />
          </mxGeometry>
        </mxCell>
        <mxCell id="sTYgbjWGwMf5bDXudof6-95" value="&amp;lt;Requiere&amp;gt;" style="endArrow=open;endSize=12;dashed=1;html=1;rounded=0;sketch=1;curveFitting=1;jiggle=2;fontFamily=Architects Daughter;fontSource=https%3A%2F%2Ffonts.googleapis.com%2Fcss%3Ffamily%3DArchitects%2BDaughter;" edge="1" parent="sTYgbjWGwMf5bDXudof6-1" source="sTYgbjWGwMf5bDXudof6-78" target="sTYgbjWGwMf5bDXudof6-77">
          <mxGeometry x="0.0068" width="160" relative="1" as="geometry">
            <mxPoint x="637.75" y="810" as="sourcePoint" />
            <mxPoint x="633.75" y="720" as="targetPoint" />
            <mxPoint as="offset" />
          </mxGeometry>
        </mxCell>
        <mxCell id="sTYgbjWGwMf5bDXudof6-96" value="&amp;lt;Requiere&amp;gt;" style="endArrow=open;endSize=12;dashed=1;html=1;rounded=0;sketch=1;curveFitting=1;jiggle=2;fontFamily=Architects Daughter;fontSource=https%3A%2F%2Ffonts.googleapis.com%2Fcss%3Ffamily%3DArchitects%2BDaughter;" edge="1" parent="sTYgbjWGwMf5bDXudof6-1" source="sTYgbjWGwMf5bDXudof6-80" target="sTYgbjWGwMf5bDXudof6-73">
          <mxGeometry x="0.0068" width="160" relative="1" as="geometry">
            <mxPoint x="657" y="480" as="sourcePoint" />
            <mxPoint x="640" y="420" as="targetPoint" />
            <mxPoint as="offset" />
          </mxGeometry>
        </mxCell>
        <mxCell id="rOjoHj5BLnAjTdTDE-uj-6" value="" style="group" vertex="1" connectable="0" parent="sTYgbjWGwMf5bDXudof6-1">
          <mxGeometry x="610" width="370" height="90" as="geometry" />
        </mxCell>
        <mxCell id="rOjoHj5BLnAjTdTDE-uj-7" value="" style="rounded=0;whiteSpace=wrap;html=1;sketch=1;hachureGap=4;jiggle=2;curveFitting=1;fontFamily=Architects Daughter;fontSource=https%3A%2F%2Ffonts.googleapis.com%2Fcss%3Ffamily%3DArchitects%2BDaughter;fontSize=20;fillColor=none;strokeColor=none;" vertex="1" parent="rOjoHj5BLnAjTdTDE-uj-6">
          <mxGeometry width="370" height="90" as="geometry" />
        </mxCell>
        <UserObject label="" link="data:page/id,eMnD9ueBGQKzejU1eeqi" id="rOjoHj5BLnAjTdTDE-uj-8">
          <mxCell style="triangle;whiteSpace=wrap;html=1;sketch=1;hachureGap=4;jiggle=2;curveFitting=1;fontFamily=Architects Daughter;fontSource=https%3A%2F%2Ffonts.googleapis.com%2Fcss%3Ffamily%3DArchitects%2BDaughter;fontSize=20;" vertex="1" parent="rOjoHj5BLnAjTdTDE-uj-6">
            <mxGeometry x="325" y="20" width="30" height="50" as="geometry" />
          </mxCell>
        </UserObject>
        <UserObject label="" link="data:page/id,I9eKHZl-COyITAfP1DYY" id="rOjoHj5BLnAjTdTDE-uj-9">
          <mxCell style="triangle;whiteSpace=wrap;html=1;sketch=1;hachureGap=4;jiggle=2;curveFitting=1;fontFamily=Architects Daughter;fontSource=https%3A%2F%2Ffonts.googleapis.com%2Fcss%3Ffamily%3DArchitects%2BDaughter;fontSize=20;flipH=1;" vertex="1" parent="rOjoHj5BLnAjTdTDE-uj-6">
            <mxGeometry x="248" y="20" width="30" height="50" as="geometry" />
          </mxCell>
        </UserObject>
        <UserObject label="&lt;p style=&quot;line-height: 60%;&quot;&gt;&lt;font style=&quot;font-size: 13px;&quot;&gt;All&lt;br&gt;Views&lt;/font&gt;&lt;/p&gt;" link="data:page/id,whgJcLObAnrZEsQRWRJR" id="rOjoHj5BLnAjTdTDE-uj-11">
          <mxCell style="whiteSpace=wrap;html=1;shape=mxgraph.basic.pentagon;sketch=1;hachureGap=4;jiggle=2;curveFitting=1;fontFamily=Architects Daughter;fontSource=https%3A%2F%2Ffonts.googleapis.com%2Fcss%3Ffamily%3DArchitects%2BDaughter;fontSize=20;" vertex="1" parent="rOjoHj5BLnAjTdTDE-uj-6">
            <mxGeometry x="20" y="20" width="60" height="50" as="geometry" />
          </mxCell>
        </UserObject>
        <UserObject label="" link="data:page/id,e-DazdNSSwbjZ-o5UTgS" id="bxqTyFdy3VCAklO07277-0">
          <mxCell style="verticalLabelPosition=bottom;verticalAlign=top;html=1;shape=mxgraph.basic.4_point_star_2;dx=0.8;sketch=1;hachureGap=4;jiggle=2;curveFitting=1;fontFamily=Architects Daughter;fontSource=https%3A%2F%2Ffonts.googleapis.com%2Fcss%3Ffamily%3DArchitects%2BDaughter;fontSize=20;" vertex="1" parent="rOjoHj5BLnAjTdTDE-uj-6">
            <mxGeometry x="160" y="20" width="50" height="50" as="geometry" />
          </mxCell>
        </UserObject>
      </root>
    </mxGraphModel>
  </diagram>
  <diagram name="CU - MOD003" id="eMnD9ueBGQKzejU1eeqi">
    <mxGraphModel dx="1586" dy="733" grid="1" gridSize="10" guides="1" tooltips="1" connect="1" arrows="1" fold="1" page="0" pageScale="1" pageWidth="850" pageHeight="1100" math="0" shadow="0">
      <root>
        <mxCell id="35FxLRD4kAB7hLzbJFRl-0" />
        <mxCell id="35FxLRD4kAB7hLzbJFRl-1" parent="35FxLRD4kAB7hLzbJFRl-0" />
        <mxCell id="35FxLRD4kAB7hLzbJFRl-3" value="&lt;b style=&quot;font-size: 25px;&quot;&gt;&lt;font style=&quot;font-size: 25px;&quot;&gt;Casos de uso&lt;br&gt;&lt;/font&gt;&lt;/b&gt;&lt;div style=&quot;font-size: 25px;&quot;&gt;&lt;font style=&quot;font-size: 25px;&quot;&gt;(MOD-003)&lt;i style=&quot;&quot;&gt;&amp;nbsp;-&amp;nbsp;&lt;/i&gt;&lt;i style=&quot;&quot;&gt;Interoperabilidad&lt;/i&gt;&lt;/font&gt;&lt;/div&gt;" style="shape=umlFrame;whiteSpace=wrap;html=1;pointerEvents=0;width=430;height=80;sketch=1;curveFitting=1;jiggle=2;fontFamily=Architects Daughter;fontSource=https%3A%2F%2Ffonts.googleapis.com%2Fcss%3Ffamily%3DArchitects%2BDaughter;" vertex="1" parent="35FxLRD4kAB7hLzbJFRl-1">
          <mxGeometry x="100" width="840" height="980" as="geometry" />
        </mxCell>
        <UserObject label="Organización cooperante&lt;br&gt;&lt;b&gt;ACT-003&lt;/b&gt;" link="https://github.com/yeiferamunozt/ProActHelp/blob/design/Arquitectura%20de%20software/Requerimientos/Identificacion.md#act-009" linkTarget="_blank" id="35FxLRD4kAB7hLzbJFRl-4">
          <mxCell style="shape=umlActor;verticalLabelPosition=bottom;verticalAlign=top;html=1;outlineConnect=0;sketch=1;curveFitting=1;jiggle=2;fontFamily=Architects Daughter;fontSource=https%3A%2F%2Ffonts.googleapis.com%2Fcss%3Ffamily%3DArchitects%2BDaughter;" vertex="1" parent="35FxLRD4kAB7hLzbJFRl-1">
            <mxGeometry y="548" width="30" height="60" as="geometry" />
          </mxCell>
        </UserObject>
        <UserObject label="Administrador de territorio&lt;br&gt;&lt;b&gt;ACT-005&lt;/b&gt;" link="https://github.com/yeiferamunozt/ProActHelp/blob/design/Arquitectura%20de%20software/Requerimientos/Identificacion.md#act-005" linkTarget="_blank" id="35FxLRD4kAB7hLzbJFRl-5">
          <mxCell style="shape=umlActor;verticalLabelPosition=bottom;verticalAlign=top;html=1;outlineConnect=0;sketch=1;curveFitting=1;jiggle=2;fontFamily=Architects Daughter;fontSource=https%3A%2F%2Ffonts.googleapis.com%2Fcss%3Ffamily%3DArchitects%2BDaughter;" vertex="1" parent="35FxLRD4kAB7hLzbJFRl-1">
            <mxGeometry y="263" width="30" height="60" as="geometry" />
          </mxCell>
        </UserObject>
        <mxCell id="35FxLRD4kAB7hLzbJFRl-6" value="&lt;b&gt;RQF-018&lt;/b&gt;&lt;br&gt;gestionar proyectos" style="ellipse;whiteSpace=wrap;html=1;sketch=1;curveFitting=1;jiggle=2;fontFamily=Architects Daughter;fontSource=https%3A%2F%2Ffonts.googleapis.com%2Fcss%3Ffamily%3DArchitects%2BDaughter;" vertex="1" parent="35FxLRD4kAB7hLzbJFRl-1">
          <mxGeometry x="244.75" y="253" width="192.5" height="80" as="geometry" />
        </mxCell>
        <mxCell id="35FxLRD4kAB7hLzbJFRl-7" value="&lt;b&gt;RQF-019&lt;/b&gt;&lt;br&gt;gestionar tareas dentro de cada proyecto" style="ellipse;whiteSpace=wrap;html=1;sketch=1;curveFitting=1;jiggle=2;fontFamily=Architects Daughter;fontSource=https%3A%2F%2Ffonts.googleapis.com%2Fcss%3Ffamily%3DArchitects%2BDaughter;" vertex="1" parent="35FxLRD4kAB7hLzbJFRl-1">
          <mxGeometry x="244.75" y="538" width="192.5" height="80" as="geometry" />
        </mxCell>
        <mxCell id="35FxLRD4kAB7hLzbJFRl-8" value="&lt;b&gt;RQF-020&lt;/b&gt;&lt;br&gt;visualizar proyectos y tareas con diferentes vistas" style="ellipse;whiteSpace=wrap;html=1;sketch=1;curveFitting=1;jiggle=2;fontFamily=Architects Daughter;fontSource=https%3A%2F%2Ffonts.googleapis.com%2Fcss%3Ffamily%3DArchitects%2BDaughter;" vertex="1" parent="35FxLRD4kAB7hLzbJFRl-1">
          <mxGeometry x="610" y="210" width="192.5" height="80" as="geometry" />
        </mxCell>
        <mxCell id="35FxLRD4kAB7hLzbJFRl-9" value="&lt;b&gt;RQF-021&lt;/b&gt;&lt;br&gt;asignar responsables a cada tarea" style="ellipse;whiteSpace=wrap;html=1;sketch=1;curveFitting=1;jiggle=2;fontFamily=Architects Daughter;fontSource=https%3A%2F%2Ffonts.googleapis.com%2Fcss%3Ffamily%3DArchitects%2BDaughter;" vertex="1" parent="35FxLRD4kAB7hLzbJFRl-1">
          <mxGeometry x="251" y="783" width="180" height="80" as="geometry" />
        </mxCell>
        <mxCell id="35FxLRD4kAB7hLzbJFRl-10" value="&lt;b&gt;RQF-022&lt;/b&gt;&lt;br&gt;medir los tiempos de ejecución de las tareas realizadas" style="ellipse;whiteSpace=wrap;html=1;sketch=1;curveFitting=1;jiggle=2;fontFamily=Architects Daughter;fontSource=https%3A%2F%2Ffonts.googleapis.com%2Fcss%3Ffamily%3DArchitects%2BDaughter;" vertex="1" parent="35FxLRD4kAB7hLzbJFRl-1">
          <mxGeometry x="610" y="600" width="192.5" height="80" as="geometry" />
        </mxCell>
        <mxCell id="35FxLRD4kAB7hLzbJFRl-11" value="&lt;b&gt;RQF-023&lt;/b&gt;&lt;br&gt;consultar información sobre los proyectos" style="ellipse;whiteSpace=wrap;html=1;sketch=1;curveFitting=1;jiggle=2;fontFamily=Architects Daughter;fontSource=https%3A%2F%2Ffonts.googleapis.com%2Fcss%3Ffamily%3DArchitects%2BDaughter;" vertex="1" parent="35FxLRD4kAB7hLzbJFRl-1">
          <mxGeometry x="610" y="410" width="192.5" height="80" as="geometry" />
        </mxCell>
        <mxCell id="35FxLRD4kAB7hLzbJFRl-12" value="&lt;b&gt;RQF-024&lt;/b&gt;&lt;br&gt;gestionar tareas o apoyar en su ejecución" style="ellipse;whiteSpace=wrap;html=1;sketch=1;curveFitting=1;jiggle=2;fontFamily=Architects Daughter;fontSource=https%3A%2F%2Ffonts.googleapis.com%2Fcss%3Ffamily%3DArchitects%2BDaughter;" vertex="1" parent="35FxLRD4kAB7hLzbJFRl-1">
          <mxGeometry x="610" y="800" width="192.5" height="80" as="geometry" />
        </mxCell>
        <mxCell id="35FxLRD4kAB7hLzbJFRl-13" value="" style="endArrow=none;html=1;rounded=0;sketch=1;curveFitting=1;jiggle=2;fontFamily=Architects Daughter;fontSource=https%3A%2F%2Ffonts.googleapis.com%2Fcss%3Ffamily%3DArchitects%2BDaughter;" edge="1" parent="35FxLRD4kAB7hLzbJFRl-1" source="35FxLRD4kAB7hLzbJFRl-6" target="35FxLRD4kAB7hLzbJFRl-5">
          <mxGeometry width="50" height="50" relative="1" as="geometry">
            <mxPoint x="-199" y="345" as="sourcePoint" />
            <mxPoint x="-50" y="411" as="targetPoint" />
          </mxGeometry>
        </mxCell>
        <mxCell id="35FxLRD4kAB7hLzbJFRl-14" value="" style="endArrow=none;html=1;rounded=0;sketch=1;curveFitting=1;jiggle=2;fontFamily=Architects Daughter;fontSource=https%3A%2F%2Ffonts.googleapis.com%2Fcss%3Ffamily%3DArchitects%2BDaughter;" edge="1" parent="35FxLRD4kAB7hLzbJFRl-1" source="35FxLRD4kAB7hLzbJFRl-7" target="35FxLRD4kAB7hLzbJFRl-4">
          <mxGeometry width="50" height="50" relative="1" as="geometry">
            <mxPoint x="230" y="263" as="sourcePoint" />
            <mxPoint x="10" y="270" as="targetPoint" />
          </mxGeometry>
        </mxCell>
        <mxCell id="35FxLRD4kAB7hLzbJFRl-15" value="&amp;lt;Incluye&amp;gt;" style="endArrow=open;endSize=12;dashed=1;html=1;rounded=0;sketch=1;curveFitting=1;jiggle=2;fontFamily=Architects Daughter;fontSource=https%3A%2F%2Ffonts.googleapis.com%2Fcss%3Ffamily%3DArchitects%2BDaughter;" edge="1" parent="35FxLRD4kAB7hLzbJFRl-1" source="35FxLRD4kAB7hLzbJFRl-6" target="35FxLRD4kAB7hLzbJFRl-7">
          <mxGeometry x="0.0068" width="160" relative="1" as="geometry">
            <mxPoint x="-442" y="589.1300000000001" as="sourcePoint" />
            <mxPoint x="-267" y="589.1300000000001" as="targetPoint" />
            <mxPoint as="offset" />
          </mxGeometry>
        </mxCell>
        <mxCell id="35FxLRD4kAB7hLzbJFRl-16" value="&amp;lt;Incluye&amp;gt;" style="endArrow=open;endSize=12;dashed=1;html=1;rounded=0;sketch=1;curveFitting=1;jiggle=2;fontFamily=Architects Daughter;fontSource=https%3A%2F%2Ffonts.googleapis.com%2Fcss%3Ffamily%3DArchitects%2BDaughter;" edge="1" parent="35FxLRD4kAB7hLzbJFRl-1" source="35FxLRD4kAB7hLzbJFRl-6" target="35FxLRD4kAB7hLzbJFRl-8">
          <mxGeometry x="0.0068" width="160" relative="1" as="geometry">
            <mxPoint x="333" y="310" as="sourcePoint" />
            <mxPoint x="360" y="480" as="targetPoint" />
            <mxPoint as="offset" />
          </mxGeometry>
        </mxCell>
        <mxCell id="35FxLRD4kAB7hLzbJFRl-17" value="&amp;lt;Incluye&amp;gt;" style="endArrow=open;endSize=12;dashed=1;html=1;rounded=0;sketch=1;curveFitting=1;jiggle=2;fontFamily=Architects Daughter;fontSource=https%3A%2F%2Ffonts.googleapis.com%2Fcss%3Ffamily%3DArchitects%2BDaughter;" edge="1" parent="35FxLRD4kAB7hLzbJFRl-1" source="35FxLRD4kAB7hLzbJFRl-7" target="35FxLRD4kAB7hLzbJFRl-8">
          <mxGeometry x="0.0068" width="160" relative="1" as="geometry">
            <mxPoint x="393" y="270" as="sourcePoint" />
            <mxPoint x="540" y="270" as="targetPoint" />
            <mxPoint as="offset" />
          </mxGeometry>
        </mxCell>
        <UserObject label="Organización de base&lt;br&gt;&lt;b&gt;ACT-004&lt;/b&gt;" link="https://github.com/yeiferamunozt/ProActHelp/blob/design/Arquitectura%20de%20software/Requerimientos/Identificacion.md#act-004" linkTarget="_blank" id="35FxLRD4kAB7hLzbJFRl-18">
          <mxCell style="shape=umlActor;verticalLabelPosition=bottom;verticalAlign=top;html=1;outlineConnect=0;sketch=1;curveFitting=1;jiggle=2;fontFamily=Architects Daughter;fontSource=https%3A%2F%2Ffonts.googleapis.com%2Fcss%3Ffamily%3DArchitects%2BDaughter;" vertex="1" parent="35FxLRD4kAB7hLzbJFRl-1">
            <mxGeometry x="1024" y="220" width="30" height="60" as="geometry" />
          </mxCell>
        </UserObject>
        <mxCell id="35FxLRD4kAB7hLzbJFRl-19" value="" style="endArrow=none;html=1;rounded=0;sketch=1;curveFitting=1;jiggle=2;fontFamily=Architects Daughter;fontSource=https%3A%2F%2Ffonts.googleapis.com%2Fcss%3Ffamily%3DArchitects%2BDaughter;" edge="1" parent="35FxLRD4kAB7hLzbJFRl-1" source="35FxLRD4kAB7hLzbJFRl-8" target="35FxLRD4kAB7hLzbJFRl-18">
          <mxGeometry width="50" height="50" relative="1" as="geometry">
            <mxPoint x="200" y="270" as="sourcePoint" />
            <mxPoint x="10" y="270" as="targetPoint" />
          </mxGeometry>
        </mxCell>
        <mxCell id="35FxLRD4kAB7hLzbJFRl-20" value="&amp;lt;Incluye&amp;gt;" style="endArrow=open;endSize=12;dashed=1;html=1;rounded=0;sketch=1;curveFitting=1;jiggle=2;fontFamily=Architects Daughter;fontSource=https%3A%2F%2Ffonts.googleapis.com%2Fcss%3Ffamily%3DArchitects%2BDaughter;" edge="1" parent="35FxLRD4kAB7hLzbJFRl-1" source="35FxLRD4kAB7hLzbJFRl-7" target="35FxLRD4kAB7hLzbJFRl-9">
          <mxGeometry x="0.0068" width="160" relative="1" as="geometry">
            <mxPoint x="404" y="330" as="sourcePoint" />
            <mxPoint x="449" y="570" as="targetPoint" />
            <mxPoint as="offset" />
          </mxGeometry>
        </mxCell>
        <UserObject label="Voluntario&lt;br&gt;&lt;b&gt;ACT-002&lt;/b&gt;" link="https://github.com/yeiferamunozt/ProActHelp/blob/design/Arquitectura%20de%20software/Requerimientos/Identificacion.md#act-002" linkTarget="_blank" id="35FxLRD4kAB7hLzbJFRl-21">
          <mxCell style="shape=umlActor;verticalLabelPosition=bottom;verticalAlign=top;html=1;outlineConnect=0;sketch=1;curveFitting=1;jiggle=2;fontFamily=Architects Daughter;fontSource=https%3A%2F%2Ffonts.googleapis.com%2Fcss%3Ffamily%3DArchitects%2BDaughter;" vertex="1" parent="35FxLRD4kAB7hLzbJFRl-1">
            <mxGeometry x="1024" y="610" width="30" height="60" as="geometry" />
          </mxCell>
        </UserObject>
        <mxCell id="35FxLRD4kAB7hLzbJFRl-22" value="" style="endArrow=none;html=1;rounded=0;sketch=1;curveFitting=1;jiggle=2;fontFamily=Architects Daughter;fontSource=https%3A%2F%2Ffonts.googleapis.com%2Fcss%3Ffamily%3DArchitects%2BDaughter;" edge="1" parent="35FxLRD4kAB7hLzbJFRl-1" source="35FxLRD4kAB7hLzbJFRl-10" target="35FxLRD4kAB7hLzbJFRl-21">
          <mxGeometry width="50" height="50" relative="1" as="geometry">
            <mxPoint x="752" y="373" as="sourcePoint" />
            <mxPoint x="1060" y="365" as="targetPoint" />
          </mxGeometry>
        </mxCell>
        <UserObject label="Beneficiario&lt;br&gt;&lt;b&gt;ACT-001&lt;/b&gt;" link="https://github.com/yeiferamunozt/ProActHelp/blob/design/Arquitectura%20de%20software/Requerimientos/Identificacion.md#act-001" linkTarget="_blank" id="35FxLRD4kAB7hLzbJFRl-23">
          <mxCell style="shape=umlActor;verticalLabelPosition=bottom;verticalAlign=top;html=1;outlineConnect=0;sketch=1;curveFitting=1;jiggle=2;fontFamily=Architects Daughter;fontSource=https%3A%2F%2Ffonts.googleapis.com%2Fcss%3Ffamily%3DArchitects%2BDaughter;" vertex="1" parent="35FxLRD4kAB7hLzbJFRl-1">
            <mxGeometry x="1024" y="420" width="30" height="60" as="geometry" />
          </mxCell>
        </UserObject>
        <mxCell id="35FxLRD4kAB7hLzbJFRl-24" value="" style="endArrow=none;html=1;rounded=0;sketch=1;curveFitting=1;jiggle=2;fontFamily=Architects Daughter;fontSource=https%3A%2F%2Ffonts.googleapis.com%2Fcss%3Ffamily%3DArchitects%2BDaughter;" edge="1" parent="35FxLRD4kAB7hLzbJFRl-1" source="35FxLRD4kAB7hLzbJFRl-11" target="35FxLRD4kAB7hLzbJFRl-23">
          <mxGeometry width="50" height="50" relative="1" as="geometry">
            <mxPoint x="801" y="800" as="sourcePoint" />
            <mxPoint x="1040" y="689" as="targetPoint" />
          </mxGeometry>
        </mxCell>
        <mxCell id="35FxLRD4kAB7hLzbJFRl-25" value="" style="endArrow=none;html=1;rounded=0;sketch=1;curveFitting=1;jiggle=2;fontFamily=Architects Daughter;fontSource=https%3A%2F%2Ffonts.googleapis.com%2Fcss%3Ffamily%3DArchitects%2BDaughter;" edge="1" parent="35FxLRD4kAB7hLzbJFRl-1" source="35FxLRD4kAB7hLzbJFRl-11" target="35FxLRD4kAB7hLzbJFRl-21">
          <mxGeometry width="50" height="50" relative="1" as="geometry">
            <mxPoint x="832" y="825" as="sourcePoint" />
            <mxPoint x="1070" y="813" as="targetPoint" />
          </mxGeometry>
        </mxCell>
        <mxCell id="35FxLRD4kAB7hLzbJFRl-26" value="&amp;lt;Incluye&amp;gt;" style="endArrow=open;endSize=12;dashed=1;html=1;rounded=0;sketch=1;curveFitting=1;jiggle=2;fontFamily=Architects Daughter;fontSource=https%3A%2F%2Ffonts.googleapis.com%2Fcss%3Ffamily%3DArchitects%2BDaughter;" edge="1" parent="35FxLRD4kAB7hLzbJFRl-1" source="35FxLRD4kAB7hLzbJFRl-8" target="35FxLRD4kAB7hLzbJFRl-11">
          <mxGeometry x="0.0068" width="160" relative="1" as="geometry">
            <mxPoint x="401" y="454" as="sourcePoint" />
            <mxPoint x="259" y="555" as="targetPoint" />
            <mxPoint as="offset" />
          </mxGeometry>
        </mxCell>
        <mxCell id="35FxLRD4kAB7hLzbJFRl-27" value="&amp;lt;Extiende&amp;gt;" style="endArrow=open;endSize=12;dashed=1;html=1;rounded=0;sketch=1;curveFitting=1;jiggle=2;fontFamily=Architects Daughter;fontSource=https%3A%2F%2Ffonts.googleapis.com%2Fcss%3Ffamily%3DArchitects%2BDaughter;" edge="1" parent="35FxLRD4kAB7hLzbJFRl-1" source="35FxLRD4kAB7hLzbJFRl-11" target="35FxLRD4kAB7hLzbJFRl-7">
          <mxGeometry width="160" relative="1" as="geometry">
            <mxPoint x="682" y="797" as="sourcePoint" />
            <mxPoint x="300" y="563" as="targetPoint" />
          </mxGeometry>
        </mxCell>
        <mxCell id="35FxLRD4kAB7hLzbJFRl-28" value="&amp;lt;Requiere&amp;gt;" style="endArrow=open;endSize=12;dashed=1;html=1;rounded=0;sketch=1;curveFitting=1;jiggle=2;fontFamily=Architects Daughter;fontSource=https%3A%2F%2Ffonts.googleapis.com%2Fcss%3Ffamily%3DArchitects%2BDaughter;" edge="1" parent="35FxLRD4kAB7hLzbJFRl-1" source="35FxLRD4kAB7hLzbJFRl-10" target="35FxLRD4kAB7hLzbJFRl-12">
          <mxGeometry x="0.0068" width="160" relative="1" as="geometry">
            <mxPoint x="1030" y="600" as="sourcePoint" />
            <mxPoint x="1030" y="460" as="targetPoint" />
            <mxPoint as="offset" />
          </mxGeometry>
        </mxCell>
        <mxCell id="35FxLRD4kAB7hLzbJFRl-29" value="&amp;lt;Incluye&amp;gt;" style="endArrow=open;endSize=12;dashed=1;html=1;rounded=0;sketch=1;curveFitting=1;jiggle=2;fontFamily=Architects Daughter;fontSource=https%3A%2F%2Ffonts.googleapis.com%2Fcss%3Ffamily%3DArchitects%2BDaughter;" edge="1" parent="35FxLRD4kAB7hLzbJFRl-1" source="35FxLRD4kAB7hLzbJFRl-7" target="35FxLRD4kAB7hLzbJFRl-10">
          <mxGeometry x="0.0068" width="160" relative="1" as="geometry">
            <mxPoint x="298" y="496" as="sourcePoint" />
            <mxPoint x="575" y="314" as="targetPoint" />
            <mxPoint as="offset" />
          </mxGeometry>
        </mxCell>
        <mxCell id="zyGbL8qGi8ou5rGQGtuq-0" value="" style="group" vertex="1" connectable="0" parent="35FxLRD4kAB7hLzbJFRl-1">
          <mxGeometry x="570" width="370" height="90" as="geometry" />
        </mxCell>
        <mxCell id="zyGbL8qGi8ou5rGQGtuq-1" value="" style="rounded=0;whiteSpace=wrap;html=1;sketch=1;hachureGap=4;jiggle=2;curveFitting=1;fontFamily=Architects Daughter;fontSource=https%3A%2F%2Ffonts.googleapis.com%2Fcss%3Ffamily%3DArchitects%2BDaughter;fontSize=20;fillColor=none;strokeColor=none;" vertex="1" parent="zyGbL8qGi8ou5rGQGtuq-0">
          <mxGeometry width="370" height="90" as="geometry" />
        </mxCell>
        <UserObject label="" link="data:page/id,YkuYbw_YZ6iwioSiSQ1l" id="zyGbL8qGi8ou5rGQGtuq-2">
          <mxCell style="triangle;whiteSpace=wrap;html=1;sketch=1;hachureGap=4;jiggle=2;curveFitting=1;fontFamily=Architects Daughter;fontSource=https%3A%2F%2Ffonts.googleapis.com%2Fcss%3Ffamily%3DArchitects%2BDaughter;fontSize=20;" vertex="1" parent="zyGbL8qGi8ou5rGQGtuq-0">
            <mxGeometry x="325" y="20" width="30" height="50" as="geometry" />
          </mxCell>
        </UserObject>
        <UserObject label="" link="data:page/id,iWbtqFWxXVhWIT0iU2Vk" id="zyGbL8qGi8ou5rGQGtuq-3">
          <mxCell style="triangle;whiteSpace=wrap;html=1;sketch=1;hachureGap=4;jiggle=2;curveFitting=1;fontFamily=Architects Daughter;fontSource=https%3A%2F%2Ffonts.googleapis.com%2Fcss%3Ffamily%3DArchitects%2BDaughter;fontSize=20;flipH=1;" vertex="1" parent="zyGbL8qGi8ou5rGQGtuq-0">
            <mxGeometry x="248" y="20" width="30" height="50" as="geometry" />
          </mxCell>
        </UserObject>
        <UserObject label="&lt;p style=&quot;line-height: 60%;&quot;&gt;&lt;font style=&quot;font-size: 13px;&quot;&gt;All&lt;br&gt;Views&lt;/font&gt;&lt;/p&gt;" link="data:page/id,whgJcLObAnrZEsQRWRJR" id="zyGbL8qGi8ou5rGQGtuq-5">
          <mxCell style="whiteSpace=wrap;html=1;shape=mxgraph.basic.pentagon;sketch=1;hachureGap=4;jiggle=2;curveFitting=1;fontFamily=Architects Daughter;fontSource=https%3A%2F%2Ffonts.googleapis.com%2Fcss%3Ffamily%3DArchitects%2BDaughter;fontSize=20;" vertex="1" parent="zyGbL8qGi8ou5rGQGtuq-0">
            <mxGeometry x="20" y="20" width="60" height="50" as="geometry" />
          </mxCell>
        </UserObject>
        <UserObject label="" link="data:page/id,e-DazdNSSwbjZ-o5UTgS" id="HGPJh4EmN7M3CpoI2BZ1-0">
          <mxCell style="verticalLabelPosition=bottom;verticalAlign=top;html=1;shape=mxgraph.basic.4_point_star_2;dx=0.8;sketch=1;hachureGap=4;jiggle=2;curveFitting=1;fontFamily=Architects Daughter;fontSource=https%3A%2F%2Ffonts.googleapis.com%2Fcss%3Ffamily%3DArchitects%2BDaughter;fontSize=20;" vertex="1" parent="zyGbL8qGi8ou5rGQGtuq-0">
            <mxGeometry x="160" y="20" width="50" height="50" as="geometry" />
          </mxCell>
        </UserObject>
      </root>
    </mxGraphModel>
  </diagram>
  <diagram name="CU - MOD004" id="YkuYbw_YZ6iwioSiSQ1l">
    <mxGraphModel dx="2498" dy="1297" grid="1" gridSize="10" guides="1" tooltips="1" connect="1" arrows="1" fold="1" page="0" pageScale="1" pageWidth="850" pageHeight="1100" math="0" shadow="0">
      <root>
        <mxCell id="1hJNXsoQ6C3nADNIsMyq-0" />
        <mxCell id="1hJNXsoQ6C3nADNIsMyq-1" parent="1hJNXsoQ6C3nADNIsMyq-0" />
        <mxCell id="1hJNXsoQ6C3nADNIsMyq-98" value="&lt;b style=&quot;font-size: 25px;&quot;&gt;&lt;font style=&quot;font-size: 25px;&quot;&gt;Casos de uso&lt;br&gt;&lt;/font&gt;&lt;/b&gt;&lt;div style=&quot;font-size: 25px;&quot;&gt;&lt;font style=&quot;font-size: 25px;&quot;&gt;(MOD-004)&lt;i style=&quot;&quot;&gt;&amp;nbsp;-&amp;nbsp;&lt;/i&gt;&lt;i style=&quot;&quot;&gt;Gestion del sistema&lt;/i&gt;&lt;/font&gt;&lt;/div&gt;" style="shape=umlFrame;whiteSpace=wrap;html=1;pointerEvents=0;width=439;height=80;sketch=1;curveFitting=1;jiggle=2;fontFamily=Architects Daughter;fontSource=https%3A%2F%2Ffonts.googleapis.com%2Fcss%3Ffamily%3DArchitects%2BDaughter;" vertex="1" parent="1hJNXsoQ6C3nADNIsMyq-1">
          <mxGeometry x="121" width="840" height="980" as="geometry" />
        </mxCell>
        <UserObject label="Administrador de territorio&lt;br&gt;&lt;b&gt;ACT-005&lt;/b&gt;" link="https://github.com/yeiferamunozt/ProActHelp/blob/design/Arquitectura%20de%20software/Requerimientos/Identificacion.md#act-005" linkTarget="_blank" id="1hJNXsoQ6C3nADNIsMyq-99">
          <mxCell style="shape=umlActor;verticalLabelPosition=bottom;verticalAlign=top;html=1;outlineConnect=0;sketch=1;curveFitting=1;jiggle=2;fontFamily=Architects Daughter;fontSource=https%3A%2F%2Ffonts.googleapis.com%2Fcss%3Ffamily%3DArchitects%2BDaughter;" vertex="1" parent="1hJNXsoQ6C3nADNIsMyq-1">
            <mxGeometry y="385.25" width="30" height="60" as="geometry" />
          </mxCell>
        </UserObject>
        <mxCell id="1hJNXsoQ6C3nADNIsMyq-100" value="&lt;b&gt;RQF-025&lt;/b&gt;&lt;br&gt;gestionar usuario para organizaciones, entidades e individuos" style="ellipse;whiteSpace=wrap;html=1;sketch=1;curveFitting=1;jiggle=2;fontFamily=Architects Daughter;fontSource=https%3A%2F%2Ffonts.googleapis.com%2Fcss%3Ffamily%3DArchitects%2BDaughter;" vertex="1" parent="1hJNXsoQ6C3nADNIsMyq-1">
          <mxGeometry x="228.75" y="195.25" width="192.5" height="80" as="geometry" />
        </mxCell>
        <mxCell id="1hJNXsoQ6C3nADNIsMyq-101" value="&lt;b&gt;RQF-026&lt;/b&gt;&lt;br&gt;gestionar diferentes roles y permisos" style="ellipse;whiteSpace=wrap;html=1;sketch=1;curveFitting=1;jiggle=2;fontFamily=Architects Daughter;fontSource=https%3A%2F%2Ffonts.googleapis.com%2Fcss%3Ffamily%3DArchitects%2BDaughter;" vertex="1" parent="1hJNXsoQ6C3nADNIsMyq-1">
          <mxGeometry x="626" y="197.25" width="192.5" height="80" as="geometry" />
        </mxCell>
        <mxCell id="1hJNXsoQ6C3nADNIsMyq-102" value="&lt;b&gt;RQF-027&lt;/b&gt;&lt;br&gt;gestionar tutoriales integrados en el sistema" style="ellipse;whiteSpace=wrap;html=1;sketch=1;curveFitting=1;jiggle=2;fontFamily=Architects Daughter;fontSource=https%3A%2F%2Ffonts.googleapis.com%2Fcss%3Ffamily%3DArchitects%2BDaughter;" vertex="1" parent="1hJNXsoQ6C3nADNIsMyq-1">
          <mxGeometry x="215" y="385.25" width="220" height="80" as="geometry" />
        </mxCell>
        <mxCell id="1hJNXsoQ6C3nADNIsMyq-103" value="&lt;b&gt;RQF-028&lt;/b&gt;&lt;br&gt;consultar tutoriales" style="ellipse;whiteSpace=wrap;html=1;sketch=1;curveFitting=1;jiggle=2;fontFamily=Architects Daughter;fontSource=https%3A%2F%2Ffonts.googleapis.com%2Fcss%3Ffamily%3DArchitects%2BDaughter;" vertex="1" parent="1hJNXsoQ6C3nADNIsMyq-1">
          <mxGeometry x="626" y="387.25" width="192.5" height="80" as="geometry" />
        </mxCell>
        <mxCell id="1hJNXsoQ6C3nADNIsMyq-104" value="&lt;b&gt;RQF-029&lt;/b&gt;&lt;br&gt;iniciar sesión en el sistema" style="ellipse;whiteSpace=wrap;html=1;sketch=1;curveFitting=1;jiggle=2;fontFamily=Architects Daughter;fontSource=https%3A%2F%2Ffonts.googleapis.com%2Fcss%3Ffamily%3DArchitects%2BDaughter;" vertex="1" parent="1hJNXsoQ6C3nADNIsMyq-1">
          <mxGeometry x="410" y="585.25" width="192.5" height="80" as="geometry" />
        </mxCell>
        <mxCell id="1hJNXsoQ6C3nADNIsMyq-105" value="&lt;b&gt;RQF-030&lt;/b&gt;&lt;br&gt;cerrar sesión en el sistema" style="ellipse;whiteSpace=wrap;html=1;sketch=1;curveFitting=1;jiggle=2;fontFamily=Architects Daughter;fontSource=https%3A%2F%2Ffonts.googleapis.com%2Fcss%3Ffamily%3DArchitects%2BDaughter;" vertex="1" parent="1hJNXsoQ6C3nADNIsMyq-1">
          <mxGeometry x="310" y="805.25" width="192.5" height="80" as="geometry" />
        </mxCell>
        <mxCell id="1hJNXsoQ6C3nADNIsMyq-106" value="&lt;b&gt;RQF-031&lt;/b&gt;&lt;br&gt;recuperar contraseña" style="ellipse;whiteSpace=wrap;html=1;sketch=1;curveFitting=1;jiggle=2;fontFamily=Architects Daughter;fontSource=https%3A%2F%2Ffonts.googleapis.com%2Fcss%3Ffamily%3DArchitects%2BDaughter;" vertex="1" parent="1hJNXsoQ6C3nADNIsMyq-1">
          <mxGeometry x="710" y="705.25" width="192.5" height="80" as="geometry" />
        </mxCell>
        <mxCell id="1hJNXsoQ6C3nADNIsMyq-107" value="&lt;b&gt;RQF-032&lt;/b&gt;&lt;br&gt;cambiar contraseña" style="ellipse;whiteSpace=wrap;html=1;sketch=1;curveFitting=1;jiggle=2;fontFamily=Architects Daughter;fontSource=https%3A%2F%2Ffonts.googleapis.com%2Fcss%3Ffamily%3DArchitects%2BDaughter;" vertex="1" parent="1hJNXsoQ6C3nADNIsMyq-1">
          <mxGeometry x="560" y="805.25" width="192.5" height="80" as="geometry" />
        </mxCell>
        <mxCell id="1hJNXsoQ6C3nADNIsMyq-108" value="&lt;b&gt;RQF-033&lt;/b&gt;&lt;br&gt;consultar información mediante una API" style="ellipse;whiteSpace=wrap;html=1;sketch=1;curveFitting=1;jiggle=2;fontFamily=Architects Daughter;fontSource=https%3A%2F%2Ffonts.googleapis.com%2Fcss%3Ffamily%3DArchitects%2BDaughter;" vertex="1" parent="1hJNXsoQ6C3nADNIsMyq-1">
          <mxGeometry x="180" y="705.25" width="190" height="80" as="geometry" />
        </mxCell>
        <UserObject label="Super Administrador&lt;br&gt;&lt;b&gt;ACT-006&lt;/b&gt;" link="https://github.com/yeiferamunozt/ProActHelp/blob/design/Arquitectura%20de%20software/Requerimientos/Identificacion.md#act-006" linkTarget="_blank" id="1hJNXsoQ6C3nADNIsMyq-109">
          <mxCell style="shape=umlActor;verticalLabelPosition=bottom;verticalAlign=top;html=1;outlineConnect=0;sketch=1;curveFitting=1;jiggle=2;fontFamily=Architects Daughter;fontSource=https%3A%2F%2Ffonts.googleapis.com%2Fcss%3Ffamily%3DArchitects%2BDaughter;" vertex="1" parent="1hJNXsoQ6C3nADNIsMyq-1">
            <mxGeometry y="188.75" width="30" height="60" as="geometry" />
          </mxCell>
        </UserObject>
        <mxCell id="1hJNXsoQ6C3nADNIsMyq-110" value="" style="endArrow=none;html=1;rounded=0;sketch=1;curveFitting=1;jiggle=2;fontFamily=Architects Daughter;fontSource=https%3A%2F%2Ffonts.googleapis.com%2Fcss%3Ffamily%3DArchitects%2BDaughter;" edge="1" parent="1hJNXsoQ6C3nADNIsMyq-1" source="1hJNXsoQ6C3nADNIsMyq-109" target="1hJNXsoQ6C3nADNIsMyq-100">
          <mxGeometry width="50" height="50" relative="1" as="geometry">
            <mxPoint x="-340" y="529.25" as="sourcePoint" />
            <mxPoint x="-797" y="332.25" as="targetPoint" />
          </mxGeometry>
        </mxCell>
        <mxCell id="1hJNXsoQ6C3nADNIsMyq-111" value="" style="endArrow=none;html=1;rounded=0;sketch=1;curveFitting=1;jiggle=2;fontFamily=Architects Daughter;fontSource=https%3A%2F%2Ffonts.googleapis.com%2Fcss%3Ffamily%3DArchitects%2BDaughter;" edge="1" parent="1hJNXsoQ6C3nADNIsMyq-1" source="1hJNXsoQ6C3nADNIsMyq-99" target="1hJNXsoQ6C3nADNIsMyq-100">
          <mxGeometry width="50" height="50" relative="1" as="geometry">
            <mxPoint x="40" y="232.25" as="sourcePoint" />
            <mxPoint x="251" y="277.25" as="targetPoint" />
          </mxGeometry>
        </mxCell>
        <mxCell id="1hJNXsoQ6C3nADNIsMyq-112" value="&amp;lt;Incluye&amp;gt;" style="endArrow=open;endSize=12;dashed=1;html=1;rounded=0;sketch=1;curveFitting=1;jiggle=2;fontFamily=Architects Daughter;fontSource=https%3A%2F%2Ffonts.googleapis.com%2Fcss%3Ffamily%3DArchitects%2BDaughter;" edge="1" parent="1hJNXsoQ6C3nADNIsMyq-1" source="1hJNXsoQ6C3nADNIsMyq-100" target="1hJNXsoQ6C3nADNIsMyq-101">
          <mxGeometry x="0.0068" width="160" relative="1" as="geometry">
            <mxPoint x="510" y="-4.75" as="sourcePoint" />
            <mxPoint x="657" y="-474.75" as="targetPoint" />
            <mxPoint as="offset" />
          </mxGeometry>
        </mxCell>
        <UserObject label="Semillero&lt;br&gt;&lt;b&gt;ACT-007&lt;/b&gt;" link="https://github.com/yeiferamunozt/ProActHelp/blob/design/Arquitectura%20de%20software/Requerimientos/Identificacion.md#act-007" linkTarget="_blank" id="1hJNXsoQ6C3nADNIsMyq-113">
          <mxCell style="shape=umlActor;verticalLabelPosition=bottom;verticalAlign=top;html=1;outlineConnect=0;sketch=1;curveFitting=1;jiggle=2;fontFamily=Architects Daughter;fontSource=https%3A%2F%2Ffonts.googleapis.com%2Fcss%3Ffamily%3DArchitects%2BDaughter;" vertex="1" parent="1hJNXsoQ6C3nADNIsMyq-1">
            <mxGeometry y="565.25" width="30" height="60" as="geometry" />
          </mxCell>
        </UserObject>
        <mxCell id="1hJNXsoQ6C3nADNIsMyq-114" value="" style="endArrow=none;html=1;rounded=0;sketch=1;curveFitting=1;jiggle=2;fontFamily=Architects Daughter;fontSource=https%3A%2F%2Ffonts.googleapis.com%2Fcss%3Ffamily%3DArchitects%2BDaughter;" edge="1" parent="1hJNXsoQ6C3nADNIsMyq-1" source="1hJNXsoQ6C3nADNIsMyq-113" target="1hJNXsoQ6C3nADNIsMyq-102">
          <mxGeometry width="50" height="50" relative="1" as="geometry">
            <mxPoint x="40" y="396.25" as="sourcePoint" />
            <mxPoint x="262" y="320.25" as="targetPoint" />
          </mxGeometry>
        </mxCell>
        <UserObject label="Usuario&lt;br&gt;&lt;b&gt;ACT-008&lt;/b&gt;" link="https://github.com/yeiferamunozt/ProActHelp/blob/design/Arquitectura%20de%20software/Requerimientos/Identificacion.md#act-008" linkTarget="_blank" id="1hJNXsoQ6C3nADNIsMyq-115">
          <mxCell style="shape=umlActor;verticalLabelPosition=bottom;verticalAlign=top;html=1;outlineConnect=0;sketch=1;curveFitting=1;jiggle=2;fontFamily=Architects Daughter;fontSource=https%3A%2F%2Ffonts.googleapis.com%2Fcss%3Ffamily%3DArchitects%2BDaughter;" vertex="1" parent="1hJNXsoQ6C3nADNIsMyq-1">
            <mxGeometry x="1070" y="505.25" width="30" height="60" as="geometry" />
          </mxCell>
        </UserObject>
        <mxCell id="1hJNXsoQ6C3nADNIsMyq-116" value="" style="endArrow=none;html=1;rounded=0;sketch=1;curveFitting=1;jiggle=2;fontFamily=Architects Daughter;fontSource=https%3A%2F%2Ffonts.googleapis.com%2Fcss%3Ffamily%3DArchitects%2BDaughter;" edge="1" parent="1hJNXsoQ6C3nADNIsMyq-1" source="1hJNXsoQ6C3nADNIsMyq-113" target="1hJNXsoQ6C3nADNIsMyq-108">
          <mxGeometry width="50" height="50" relative="1" as="geometry">
            <mxPoint x="40" y="605.25" as="sourcePoint" />
            <mxPoint x="227" y="612.25" as="targetPoint" />
          </mxGeometry>
        </mxCell>
        <mxCell id="1hJNXsoQ6C3nADNIsMyq-117" value="" style="endArrow=none;html=1;rounded=0;sketch=1;curveFitting=1;jiggle=2;fontFamily=Architects Daughter;fontSource=https%3A%2F%2Ffonts.googleapis.com%2Fcss%3Ffamily%3DArchitects%2BDaughter;" edge="1" parent="1hJNXsoQ6C3nADNIsMyq-1" source="1hJNXsoQ6C3nADNIsMyq-99" target="1hJNXsoQ6C3nADNIsMyq-102">
          <mxGeometry width="50" height="50" relative="1" as="geometry">
            <mxPoint x="40" y="396.25" as="sourcePoint" />
            <mxPoint x="262" y="320.25" as="targetPoint" />
          </mxGeometry>
        </mxCell>
        <mxCell id="1hJNXsoQ6C3nADNIsMyq-118" value="" style="endArrow=none;html=1;rounded=0;sketch=1;curveFitting=1;jiggle=2;fontFamily=Architects Daughter;fontSource=https%3A%2F%2Ffonts.googleapis.com%2Fcss%3Ffamily%3DArchitects%2BDaughter;" edge="1" parent="1hJNXsoQ6C3nADNIsMyq-1" source="1hJNXsoQ6C3nADNIsMyq-104" target="1hJNXsoQ6C3nADNIsMyq-115">
          <mxGeometry width="50" height="50" relative="1" as="geometry">
            <mxPoint x="40" y="396.25" as="sourcePoint" />
            <mxPoint x="262" y="320.25" as="targetPoint" />
          </mxGeometry>
        </mxCell>
        <mxCell id="1hJNXsoQ6C3nADNIsMyq-119" value="&amp;lt;Extiende&amp;gt;" style="endArrow=open;endSize=12;dashed=1;html=1;rounded=0;sketch=1;curveFitting=1;jiggle=2;fontFamily=Architects Daughter;fontSource=https%3A%2F%2Ffonts.googleapis.com%2Fcss%3Ffamily%3DArchitects%2BDaughter;" edge="1" parent="1hJNXsoQ6C3nADNIsMyq-1" source="1hJNXsoQ6C3nADNIsMyq-105" target="1hJNXsoQ6C3nADNIsMyq-104">
          <mxGeometry width="160" relative="1" as="geometry">
            <mxPoint x="698" y="781.75" as="sourcePoint" />
            <mxPoint x="480" y="857.75" as="targetPoint" />
          </mxGeometry>
        </mxCell>
        <mxCell id="1hJNXsoQ6C3nADNIsMyq-120" value="" style="endArrow=none;html=1;rounded=0;sketch=1;curveFitting=1;jiggle=2;fontFamily=Architects Daughter;fontSource=https%3A%2F%2Ffonts.googleapis.com%2Fcss%3Ffamily%3DArchitects%2BDaughter;" edge="1" parent="1hJNXsoQ6C3nADNIsMyq-1" source="1hJNXsoQ6C3nADNIsMyq-103" target="1hJNXsoQ6C3nADNIsMyq-115">
          <mxGeometry width="50" height="50" relative="1" as="geometry">
            <mxPoint x="875" y="252.25" as="sourcePoint" />
            <mxPoint x="1130" y="349.25" as="targetPoint" />
          </mxGeometry>
        </mxCell>
        <mxCell id="1hJNXsoQ6C3nADNIsMyq-121" value="&amp;lt;Extiende&amp;gt;" style="endArrow=open;endSize=12;dashed=1;html=1;rounded=0;sketch=1;curveFitting=1;jiggle=2;fontFamily=Architects Daughter;fontSource=https%3A%2F%2Ffonts.googleapis.com%2Fcss%3Ffamily%3DArchitects%2BDaughter;" edge="1" parent="1hJNXsoQ6C3nADNIsMyq-1" source="1hJNXsoQ6C3nADNIsMyq-106" target="1hJNXsoQ6C3nADNIsMyq-104">
          <mxGeometry width="160" relative="1" as="geometry">
            <mxPoint x="642" y="708.25" as="sourcePoint" />
            <mxPoint x="768" y="782.25" as="targetPoint" />
          </mxGeometry>
        </mxCell>
        <mxCell id="1hJNXsoQ6C3nADNIsMyq-122" value="&amp;lt;Extiende&amp;gt;" style="endArrow=open;endSize=12;dashed=1;html=1;rounded=0;sketch=1;curveFitting=1;jiggle=2;fontFamily=Architects Daughter;fontSource=https%3A%2F%2Ffonts.googleapis.com%2Fcss%3Ffamily%3DArchitects%2BDaughter;" edge="1" parent="1hJNXsoQ6C3nADNIsMyq-1" source="1hJNXsoQ6C3nADNIsMyq-107" target="1hJNXsoQ6C3nADNIsMyq-104">
          <mxGeometry width="160" relative="1" as="geometry">
            <mxPoint x="816" y="615.25" as="sourcePoint" />
            <mxPoint x="822" y="775.25" as="targetPoint" />
          </mxGeometry>
        </mxCell>
        <mxCell id="1hJNXsoQ6C3nADNIsMyq-123" value="&amp;lt;Requiere&amp;gt;" style="endArrow=open;endSize=12;dashed=1;html=1;rounded=0;sketch=1;curveFitting=1;jiggle=2;fontFamily=Architects Daughter;fontSource=https%3A%2F%2Ffonts.googleapis.com%2Fcss%3Ffamily%3DArchitects%2BDaughter;" edge="1" parent="1hJNXsoQ6C3nADNIsMyq-1" source="1hJNXsoQ6C3nADNIsMyq-108" target="1hJNXsoQ6C3nADNIsMyq-104">
          <mxGeometry width="160" relative="1" as="geometry">
            <mxPoint x="508" y="865.25" as="sourcePoint" />
            <mxPoint x="515" y="675.25" as="targetPoint" />
          </mxGeometry>
        </mxCell>
        <mxCell id="1hJNXsoQ6C3nADNIsMyq-124" value="" style="endArrow=none;html=1;rounded=0;sketch=1;curveFitting=1;jiggle=2;fontFamily=Architects Daughter;fontSource=https%3A%2F%2Ffonts.googleapis.com%2Fcss%3Ffamily%3DArchitects%2BDaughter;" edge="1" parent="1hJNXsoQ6C3nADNIsMyq-1" source="1hJNXsoQ6C3nADNIsMyq-113" target="1hJNXsoQ6C3nADNIsMyq-104">
          <mxGeometry width="50" height="50" relative="1" as="geometry">
            <mxPoint x="40" y="615.25" as="sourcePoint" />
            <mxPoint x="270" y="771.25" as="targetPoint" />
          </mxGeometry>
        </mxCell>
        <mxCell id="1hJNXsoQ6C3nADNIsMyq-125" value="&amp;lt;Incluye&amp;gt;" style="endArrow=open;endSize=12;dashed=1;html=1;rounded=0;sketch=1;curveFitting=1;jiggle=2;fontFamily=Architects Daughter;fontSource=https%3A%2F%2Ffonts.googleapis.com%2Fcss%3Ffamily%3DArchitects%2BDaughter;" edge="1" parent="1hJNXsoQ6C3nADNIsMyq-1" source="1hJNXsoQ6C3nADNIsMyq-102" target="1hJNXsoQ6C3nADNIsMyq-103">
          <mxGeometry width="160" relative="1" as="geometry">
            <mxPoint x="441" y="835.25" as="sourcePoint" />
            <mxPoint x="501" y="675.25" as="targetPoint" />
          </mxGeometry>
        </mxCell>
        <mxCell id="TvXgR2b0aY7ju61mif0_-0" value="" style="group" vertex="1" connectable="0" parent="1hJNXsoQ6C3nADNIsMyq-1">
          <mxGeometry x="590" width="370" height="90" as="geometry" />
        </mxCell>
        <mxCell id="TvXgR2b0aY7ju61mif0_-1" value="" style="rounded=0;whiteSpace=wrap;html=1;sketch=1;hachureGap=4;jiggle=2;curveFitting=1;fontFamily=Architects Daughter;fontSource=https%3A%2F%2Ffonts.googleapis.com%2Fcss%3Ffamily%3DArchitects%2BDaughter;fontSize=20;fillColor=none;strokeColor=none;" vertex="1" parent="TvXgR2b0aY7ju61mif0_-0">
          <mxGeometry width="370" height="90" as="geometry" />
        </mxCell>
        <UserObject label="" link="data:page/id,I9eKHZl-COyITAfP1DYY" id="TvXgR2b0aY7ju61mif0_-2">
          <mxCell style="triangle;whiteSpace=wrap;html=1;sketch=1;hachureGap=4;jiggle=2;curveFitting=1;fontFamily=Architects Daughter;fontSource=https%3A%2F%2Ffonts.googleapis.com%2Fcss%3Ffamily%3DArchitects%2BDaughter;fontSize=20;" vertex="1" parent="TvXgR2b0aY7ju61mif0_-0">
            <mxGeometry x="325" y="20" width="30" height="50" as="geometry" />
          </mxCell>
        </UserObject>
        <UserObject label="" link="data:page/id,eMnD9ueBGQKzejU1eeqi" id="TvXgR2b0aY7ju61mif0_-3">
          <mxCell style="triangle;whiteSpace=wrap;html=1;sketch=1;hachureGap=4;jiggle=2;curveFitting=1;fontFamily=Architects Daughter;fontSource=https%3A%2F%2Ffonts.googleapis.com%2Fcss%3Ffamily%3DArchitects%2BDaughter;fontSize=20;flipH=1;" vertex="1" parent="TvXgR2b0aY7ju61mif0_-0">
            <mxGeometry x="248" y="20" width="30" height="50" as="geometry" />
          </mxCell>
        </UserObject>
        <UserObject label="&lt;p style=&quot;line-height: 60%;&quot;&gt;&lt;font style=&quot;font-size: 13px;&quot;&gt;All&lt;br&gt;Views&lt;/font&gt;&lt;/p&gt;" link="data:page/id,whgJcLObAnrZEsQRWRJR" id="TvXgR2b0aY7ju61mif0_-5">
          <mxCell style="whiteSpace=wrap;html=1;shape=mxgraph.basic.pentagon;sketch=1;hachureGap=4;jiggle=2;curveFitting=1;fontFamily=Architects Daughter;fontSource=https%3A%2F%2Ffonts.googleapis.com%2Fcss%3Ffamily%3DArchitects%2BDaughter;fontSize=20;" vertex="1" parent="TvXgR2b0aY7ju61mif0_-0">
            <mxGeometry x="20" y="20" width="60" height="50" as="geometry" />
          </mxCell>
        </UserObject>
        <UserObject label="" link="data:page/id,e-DazdNSSwbjZ-o5UTgS" id="5Gdtwibd-5receL9Cu4e-0">
          <mxCell style="verticalLabelPosition=bottom;verticalAlign=top;html=1;shape=mxgraph.basic.4_point_star_2;dx=0.8;sketch=1;hachureGap=4;jiggle=2;curveFitting=1;fontFamily=Architects Daughter;fontSource=https%3A%2F%2Ffonts.googleapis.com%2Fcss%3Ffamily%3DArchitects%2BDaughter;fontSize=20;" vertex="1" parent="TvXgR2b0aY7ju61mif0_-0">
            <mxGeometry x="160" y="20" width="50" height="50" as="geometry" />
          </mxCell>
        </UserObject>
      </root>
    </mxGraphModel>
  </diagram>
</mxfile>
